<svg xmlns="http://www.w3.org/2000/svg" width="434" height="441" fill="none" viewBox="0 0 434 441">
  <path fill="#A4A4A3" d="M231.326 234.516a.811.811 0 1 0 1.002 1.275.811.811 0 0 0-1.002-1.275Zm-34.337-43.888a.81.81 0 0 0-.137 1.137.81.81 0 1 0 1.276-.998.812.812 0 0 0-1.139-.139Zm5.998 53.506.003-.021.021.002-.003.022-.021-.003Zm29.416 8.616.013-.118.119.014-.016.117-.116-.013Zm-79.062-85.728.001-.022.023.003-.003.022-.021-.003Zm-.413 7.704.004-.021.02.002-.001.022-.023-.003Zm.266 7.724.002-.021.022.002-.003.022-.021-.003Zm.946 7.678.003-.022.021.002-.003.021-.021-.001Zm1.56 7.597.019-.156.157.019-.019.157-.157-.02Zm2.341 7.347.015-.119.118.015-.013.118-.12-.014Zm2.971 7.127.016-.116.116.013-.013.119-.119-.016Zm3.604 6.828.013-.118.118.015-.013.119-.118-.016Zm4.2 6.479.013-.115.119.012-.016.119-.116-.016Zm4.758 6.082.012-.117.12.014-.016.118-.116-.015Zm5.278 5.636.013-.119.119.016-.016.116-.116-.013Zm5.76 5.141.014-.12.118.017-.015.115-.117-.012Zm6.203 4.598.015-.12.118.016-.015.116-.118-.012Zm6.535 4.063.031-.241.24.03-.029.241-.242-.03Zm6.982 3.372.021-.154.155.017-.019.156-.157-.019Zm7.129 2.838.027-.24.243.029-.03.243-.24-.032Zm7.509 2.062.014-.119.118.016-.015.115-.117-.012Zm7.486 1.52.034-.282.283.035-.034.284-.283-.037Zm7.697.757.034-.282.283.034-.036.281-.281-.033Zm7.816 0 .013-.117.117.016-.014.116-.116-.015Zm7.602-.55.036-.281.279.034-.032.282-.283-.035Zm7.704-1.377.015-.119.117.016-.015.115-.117-.012Zm7.372-1.92.031-.239.24.027-.028.244-.243-.032ZM272 255.01l.015-.116.115.014-.013.117-.117-.015Zm7.037-3.311.003-.021.021.003-.002.021-.022-.003Zm33.395-31.339.003-.021.021.002-.003.022-.021-.003ZM180.643 100.976l.002-.021.022.002-.004.021-.02-.002Zm-5.893 5.011.003-.021.021.002-.003.022-.021-.003Zm-5.444 5.456.002-.023.022.004-.003.02-.021-.001Zm-4.997 5.896.003-.022.021.003-.003.021-.021-.002Zm-4.494 6.279.003-.022.022.003-.004.021-.021-.002Zm-3.967 6.623.003-.021.021.003-.002.021-.022-.003Zm-3.421 6.93.004-.021.02.002-.002.022-.022-.003Zm-2.824 7.169.002-.021.02.003-.002.02-.02-.002Zm-2.245 7.39.003-.021.02.002-.001.022-.022-.003Zm-1.776 7.643.028-.243.241.033-.028.239-.241-.029Zm-.888 7.572.003-.021.02.003-.002.021-.021-.003Zm-.462 7.757.018-.156.157.019-.019.157-.156-.02Zm.191 7.757.028-.24.242.03-.03.241-.24-.031Zm.853 7.689.027-.243.242.033-.028.241-.241-.031Zm1.548 7.536.02-.157.156.019-.019.157-.157-.019Zm1.972 7.531a.287.287 0 1 1 .454-.352.287.287 0 0 1-.454.352Zm2.7 7.238a.286.286 0 1 1 .45-.352.286.286 0 0 1-.45.352Zm3.246 7.018a.346.346 0 0 1 .06-.483.344.344 0 1 1-.06.483Zm3.896 6.656a.257.257 0 0 1 .405-.316.256.256 0 1 1-.405.316Zm4.355 6.38a.286.286 0 0 1 .051-.4.285.285 0 1 1 .352.449.288.288 0 0 1-.403-.049Zm4.93 5.949a.257.257 0 0 1 .046-.362.257.257 0 0 1 .361.043.258.258 0 0 1-.407.319Zm5.322 5.588a.287.287 0 0 1 .452-.353.287.287 0 0 1-.452.353Zm5.657 5.215a.43.43 0 1 1 .678-.528.43.43 0 0 1-.678.528Zm6.139 4.662a.517.517 0 0 1 .813-.637.517.517 0 0 1-.813.637Zm6.537 4.104a.514.514 0 1 1 .811-.634.516.516 0 1 1-.811.634Zm7.036 3.416a.288.288 0 0 1 .048-.403.288.288 0 0 1 .402.05.284.284 0 0 1-.049.402.284.284 0 0 1-.401-.049Zm7.059 3.032a.373.373 0 1 1 .589-.457.373.373 0 0 1-.589.457Zm7.357 2.385a.344.344 0 1 1 .541-.424.344.344 0 0 1-.541.424Zm7.525 1.777a.342.342 0 0 1 .061-.481.342.342 0 1 1 .422.539.342.342 0 0 1-.483-.058Zm7.608 1.192a.373.373 0 1 1 .585-.461.373.373 0 0 1-.585.461Zm7.777.485a.257.257 0 1 1 .406-.316.257.257 0 0 1-.406.316Zm7.741-.098a.258.258 0 1 1 .405-.32.258.258 0 0 1-.405.32Zm7.606-.651a.344.344 0 1 1 .543-.423.344.344 0 0 1-.543.423Zm7.654-1.378a.286.286 0 1 1 .45-.352.286.286 0 0 1-.45.352Zm7.482-1.963a.26.26 0 0 1 .045-.364.26.26 0 0 1 .361.046.257.257 0 0 1-.043.361.257.257 0 0 1-.363-.043Zm7.357-2.613.034-.279.28.034-.033.281-.281-.036Zm7.049-3.138.034-.282.282.035-.034.282-.282-.035Zm6.78-3.71.029-.242.241.03-.028.241-.242-.029Zm6.508-4.29.02-.158.156.02-.017.158-.159-.02Zm6.099-4.774.015-.115.117.012-.013.12-.119-.017Zm5.753-5.284.004-.021.02.003-.002.02-.022-.002Zm5.219-5.677.003-.021.021.003-.002.021-.022-.003Zm4.744-6.088.003-.021.021.002-.002.022-.022-.003Zm4.246-6.465.002-.021.022.003-.004.021-.02-.003Zm11.306-28.604.004-.021.02.002-.003.021-.021-.002ZM193.531 92.49l.002-.022.021.004-.003.02-.02-.002Zm-6.606 3.971.003-.02.021.001-.002.022-.022-.003Zm-17.495 2.727.003-.02h.021l-.003.023-.021-.003Zm-5.523 5.419.003-.022.021.003-.002.021-.022-.002Zm-5.076 5.796.002-.023.022.004-.003.02-.021-.001Zm-4.635 6.162.003-.021.021.002-.002.022-.022-.003Zm-4.166 6.5.003-.021.02.002-.001.022-.022-.003Zm-3.678 6.797.002-.019.021.001-.002.022-.021-.004Zm-3.168 7.06.004-.021.02.002-.001.022-.023-.003Zm-2.686 7.304.015-.116.115.014-.012.117-.118-.015Zm-2.068 7.445.018-.156.157.019-.021.155-.154-.018Zm-1.607 7.647.036-.284.281.036-.034.28-.283-.032Zm-.915 7.648.035-.28.28.033-.033.282-.282-.035Zm-.344 7.702.029-.242.242.03-.029.241-.242-.029Zm.216 7.722.029-.242.241.03-.03.239-.24-.027Zm.468 7.936a.6.6 0 1 1 .944-.743.6.6 0 0 1-.944.743Zm1.497 7.497a.428.428 0 1 1 .673-.53.428.428 0 0 1-.673.53Zm2.062 7.375a.26.26 0 0 1 .046-.364.257.257 0 0 1 .361.046.259.259 0 0 1-.407.318Zm2.378 7.395a.372.372 0 1 1 .587-.459.372.372 0 0 1-.587.459Zm2.97 7.145a.456.456 0 0 1 .08-.641.458.458 0 1 1-.08.641Zm3.535 6.87a.459.459 0 1 1 .72-.564.459.459 0 0 1-.72.564Zm4.148 6.5a.344.344 0 0 1 .542-.424.343.343 0 0 1-.061.482.342.342 0 0 1-.481-.058Zm4.532 6.25a.348.348 0 0 1 .06-.484.347.347 0 0 1 .482.06.343.343 0 1 1-.542.424Zm4.835 6.017a.515.515 0 1 1 .81-.636.515.515 0 0 1-.81.636Zm5.464 5.47a.431.431 0 0 1 .679-.531.43.43 0 0 1-.679.531Zm5.735 5.149a.542.542 0 0 1 .093-.763.542.542 0 1 1 .669.855.543.543 0 0 1-.762-.092Zm5.993 4.78a.744.744 0 1 1 1.172-.919.744.744 0 0 1-1.172.919Zm6.533 4.144a.717.717 0 1 1 1.131-.88.717.717 0 0 1-1.131.88Zm6.959 3.542a.516.516 0 0 1 .813-.637.516.516 0 0 1-.813.637Zm6.859 3.304a.745.745 0 1 1 1.175-.92.745.745 0 0 1-1.175.92Zm7.466 2.462a.517.517 0 1 1 .814-.637.517.517 0 0 1-.814.637Zm7.329 2.157a.629.629 0 1 1 .882.106.626.626 0 0 1-.882-.106Zm7.64 1.455a.546.546 0 0 1 .859-.672.545.545 0 0 1-.859.672Zm7.75.869a.458.458 0 1 1 .721-.564.458.458 0 0 1-.721.564Zm7.845.258a.287.287 0 0 1 .452-.353.287.287 0 0 1-.452.353Zm7.684-.187a.342.342 0 0 1 .059-.482.34.34 0 0 1 .481.059.342.342 0 1 1-.54.423Zm7.726-.828a.287.287 0 0 1 .452-.353.285.285 0 0 1-.05.4.286.286 0 0 1-.402-.047Zm7.582-1.35a.287.287 0 1 1 .452-.353.29.29 0 0 1-.05.403.287.287 0 0 1-.402-.05Zm7.497-1.945a.26.26 0 0 1 .042-.362.261.261 0 0 1 .364.045.257.257 0 0 1-.046.361.256.256 0 0 1-.36-.044Zm7.298-2.472a.285.285 0 0 1 .051-.4.283.283 0 0 1 .399.048.285.285 0 0 1-.047.401.288.288 0 0 1-.403-.049Zm7.097-3.014a.286.286 0 1 1 .45-.354.286.286 0 0 1-.45.354Zm6.892-3.567a.26.26 0 0 1 .044-.365.26.26 0 0 1 .362.047.257.257 0 0 1-.406.318Zm6.588-4.057a.256.256 0 0 1 .042-.362.259.259 0 1 1-.042.362Zm6.307-4.567.027-.243.244.032-.032.24-.239-.029Zm5.973-5.037.02-.158.157.019-.021.155-.156-.016Zm5.494-5.395.017-.158.159.021-.02.155-.156-.018Zm5.119-5.831.014-.116.117.013-.014.119-.117-.016Zm4.718-6.212.002-.022.022.003-.004.021-.02-.002Zm4.166-6.501.002-.021.022.002-.003.022-.021-.003Zm3.678-6.797.003-.022.021.003-.003.021-.021-.002Zm3.135-7.034.003-.023.021.003-.002.021-.022-.001Zm2.637-7.282.003-.021.02.003-.002.021-.021-.003Zm2.056-7.432.003-.021.021.002-.002.022-.022-.003Zm1.526-7.589.003-.02.021.002-.002.022-.022-.004Zm.916-7.65.003-.021.021.003-.003.021-.021-.003Zm.356-7.711.002-.022.022.003-.004.021-.02-.002Zm-.213-7.721.001-.022.023.003-.004.021-.02-.002Zm-.797-7.682.004-.022.02.003-.001.021-.023-.002Zm-3.273-15.096.003-.021.02.003-.002.02-.021-.002ZM188.163 85.63l.003-.021.021.002-.002.022-.022-.003Zm-6.557 4.032.003-.02.021.001-.002.021-.022-.002Zm-11.568-2.242.003-.02.02.001-.002.023-.021-.004Zm-5.924 4.973.003-.02.021.001-.002.022-.022-.003Zm-5.564 5.365.003-.02.02.003-.001.021-.022-.004Zm-5.225 5.76.012-.117.118.015-.013.119-.117-.017Zm-4.76 6.072.012-.117.12.014-.017.117-.115-.014Zm-4.349 6.398.016-.117.116.014-.013.118-.119-.015Zm-3.879 6.671.012-.117.12.014-.017.118-.115-.015Zm-3.369 6.905.002-.021.022.002-.003.022-.021-.003Zm-2.991 7.18.012-.117.12.014-.017.118-.115-.015Zm-2.483 7.369.028-.24.242.029-.03.243-.24-.032Zm-1.917 7.48.03-.24.24.029-.029.241-.241-.03Zm-1.425 7.617.034-.279.282.032-.035.284-.281-.037Zm-.873 7.675.03-.24.241.029-.029.241-.242-.03Zm-.472 7.822a.37.37 0 0 1 .064-.521.373.373 0 0 1 .522.063.372.372 0 0 1-.586.458Zm.061 7.824a.544.544 0 1 1 .858-.668.544.544 0 0 1-.858.668Zm.396 7.949a.946.946 0 0 1 1.489-1.165.945.945 0 0 1-1.489 1.165Zm1.26 7.618a.944.944 0 1 1 1.487-1.163.945.945 0 0 1-1.487 1.163Zm2.026 7.321a.63.63 0 1 1 .991-.777.63.63 0 0 1-.991.777Zm2.281 7.385a.661.661 0 0 1 .112-.927.661.661 0 0 1 .926.115.658.658 0 0 1-1.038.812Zm2.865 7.143a.544.544 0 1 1 .857-.67.544.544 0 0 1-.857.67Zm3.418 6.884a.372.372 0 1 1 .588-.457.372.372 0 0 1-.588.457Zm3.583 6.887a.6.6 0 1 1 .945-.74.601.601 0 1 1-.945.74Zm4.33 6.382a.46.46 0 0 1 .723-.565.46.46 0 0 1-.723.565Zm4.662 6.155a.46.46 0 0 1 .078-.644.459.459 0 1 1-.078.644Zm4.94 5.929a.602.602 0 1 1 .951-.74.602.602 0 0 1-.951.74Zm5.357 5.544a.744.744 0 1 1 1.169-.917.744.744 0 0 1-1.169.917Zm5.931 4.989a.63.63 0 1 1 .994-.777.63.63 0 0 1-.994.777Zm5.852 4.9a1.003 1.003 0 1 1 1.58-1.234 1.003 1.003 0 0 1-1.58 1.234Zm6.269 4.379a1.231 1.231 0 1 1 1.94-1.517 1.231 1.231 0 0 1-1.94 1.517Zm6.937 3.617a1.005 1.005 0 0 1 .171-1.409 1.003 1.003 0 1 1-.171 1.409Zm6.978 3.298a1.002 1.002 0 1 1 1.579-1.235 1.002 1.002 0 1 1-1.579 1.235Zm7.115 2.869a1.12 1.12 0 0 1 .191-1.568 1.119 1.119 0 0 1 1.378 1.761 1.12 1.12 0 0 1-1.569-.193Zm7.157 2.471a1.376 1.376 0 1 1 2.168-1.695 1.376 1.376 0 0 1-2.168 1.695Zm8.013 1.399a.744.744 0 1 1 1.17-.919.744.744 0 0 1-1.17.919Zm7.626 1.258a.744.744 0 1 1 1.175-.915.744.744 0 0 1-1.175.915Zm7.786.663a.602.602 0 1 1 .949-.742.602.602 0 0 1-.949.742Zm7.78.158a.545.545 0 1 1 .86-.67.545.545 0 0 1-.86.67Zm7.718-.329a.545.545 0 1 1 .854-.672.545.545 0 0 1-.854.672Zm7.594-.797a.63.63 0 1 1 .992-.777.63.63 0 0 1-.992.777Zm7.758-1.513a.43.43 0 1 1 .678-.53.43.43 0 0 1-.678.53Zm7.596-1.996a.286.286 0 1 1 .45-.352.286.286 0 1 1-.45.352Zm7.29-2.384a.344.344 0 0 1 .541-.424.344.344 0 0 1-.541.424Zm7.163-2.932a.344.344 0 1 1 .545-.422.344.344 0 0 1-.545.422Zm6.908-3.389a.342.342 0 0 1 .061-.48.342.342 0 1 1 .422.54.342.342 0 0 1-.483-.06Zm6.739-3.922a.288.288 0 0 1 .05-.402.287.287 0 0 1 .353.452.287.287 0 0 1-.403-.05Zm6.471-4.385.03-.24.239.03-.027.24-.242-.03Zm6.015-4.705a.256.256 0 0 1 .046-.362.257.257 0 0 1 .316.404.257.257 0 0 1-.362-.042Zm5.759-5.183a.256.256 0 0 1 .044-.36.257.257 0 1 1-.044.36Zm5.474-5.63.019-.155.157.018-.021.157-.155-.02Zm4.918-5.867.029-.241.241.029-.029.242-.241-.03Zm4.635-6.295.019-.156.155.02-.018.156-.156-.02Zm4.19-6.584.004-.022.02.003-.002.021-.022-.002Zm3.665-6.815.003-.022.021.003-.002.021-.022-.002Zm3.095-6.994.016-.116.116.013-.014.118-.118-.015Zm2.673-7.233.015-.119.117.016-.013.116-.119-.013Zm2.164-7.402.021-.155.154.018-.018.156-.157-.019Zm1.674-7.555.014-.118.118.015-.015.117-.117-.014Zm1.131-7.64.014-.115.116.014-.013.118-.117-.017Zm.615-7.705.014-.118.117.016-.014.115-.117-.013Zm.134-7.758.002-.021.022.002-.003.022-.021-.003Zm-.46-7.71.003-.021.021.002-.002.021-.022-.002Zm-.987-7.664.004-.021.02.002-.002.022-.022-.003Zm-1.524-7.566.001-.022.023.002-.004.022-.02-.002Zm-151.153-77.82.002-.022.022.004-.004.02-.02-.002Zm-7.069 3.182.003-.02.021.002-.003.02-.021-.002Zm-6.81 3.644.003-.02.021.001-.002.022-.022-.003Zm-6.516 4.085.003-.02.021.002-.003.022-.021-.004Zm-11.638-2.174.013-.118.119.015-.016.117-.116-.014Zm-5.904 4.934.015-.118.117.014-.014.118-.118-.014Zm-5.598 5.321.015-.117.116.015-.015.115-.116-.013Zm-5.276 5.695.018-.158.156.02-.019.155-.155-.017ZM143 102.635l.02-.156.157.018-.02.158-.157-.02Zm-4.584 6.375a.256.256 0 0 1 .044-.361.256.256 0 0 1 .362.043.256.256 0 0 1-.045.361.257.257 0 0 1-.361-.043Zm-4.136 6.621a.345.345 0 0 1 .059-.483.345.345 0 0 1 .483.06c.118.15.09.365-.059.482a.343.343 0 0 1-.483-.059Zm-3.434 6.66.014-.119.119.015-.016.117-.117-.013Zm-3.188 7.029.014-.116.118.013-.015.119-.117-.016Zm-2.81 7.28.03-.241.241.029-.03.242-.241-.03Zm-2.22 7.35.018-.156.156.02-.018.156-.156-.02Zm-1.856 7.562.029-.238.242.027-.032.241-.239-.03Zm-1.46 7.736a.372.372 0 0 1 .587-.459.373.373 0 0 1-.587.459Zm-.896 7.745a.515.515 0 1 1 .81-.638.515.515 0 0 1-.81.638Zm-.211 7.631a.37.37 0 0 1 .064-.521.37.37 0 0 1 .522.063.373.373 0 0 1-.064.522.374.374 0 0 1-.522-.064Zm-.004 7.864a.603.603 0 1 1 .949-.743.602.602 0 0 1-.949.743Zm.49 7.833a.83.83 0 1 1 1.305-1.023.83.83 0 0 1-1.305 1.023Zm.891 7.846a1.143 1.143 0 0 1 .198-1.606 1.144 1.144 0 1 1-.198 1.606Zm1.899 7.351a.83.83 0 1 1 1.307-1.026.83.83 0 0 1-1.307 1.026Zm1.813 7.67a1.232 1.232 0 1 1 1.94-1.518 1.232 1.232 0 0 1-1.94 1.518Zm2.614 7.263a1.233 1.233 0 0 1 1.941-1.518 1.235 1.235 0 0 1-.211 1.729 1.234 1.234 0 0 1-1.73-.211Zm3.435 6.795a.744.744 0 1 1 1.171-.919.744.744 0 0 1-1.171.919Zm3.473 6.909a.803.803 0 0 1 .137-1.126.803.803 0 0 1 .989 1.265.803.803 0 0 1-1.126-.139Zm3.829 6.73a.944.944 0 1 1 1.486-1.164.944.944 0 0 1-1.486 1.164Zm4.566 6.215a.657.657 0 0 1 .113-.924.657.657 0 1 1 .81 1.036.657.657 0 0 1-.923-.112Zm4.575 6.225a.915.915 0 1 1 1.442-1.128.916.916 0 1 1-1.442 1.128Zm5.042 5.841a1.032 1.032 0 0 1 1.625-1.271 1.031 1.031 0 0 1-1.625 1.271Zm5.483 5.439a1.03 1.03 0 1 1 1.621-1.271 1.03 1.03 0 0 1-1.621 1.271Zm5.785 5.096a1.088 1.088 0 1 1 1.715-1.34 1.088 1.088 0 0 1-1.715 1.34Zm5.9 4.869a1.431 1.431 0 1 1 2.259-1.764 1.431 1.431 0 0 1-2.259 1.764Zm6.265 4.407a1.63 1.63 0 1 1 2.569-2.01 1.631 1.631 0 0 1-2.569 2.01Zm6.922 3.673a1.344 1.344 0 0 1 .232-1.887 1.341 1.341 0 0 1 1.887.229 1.342 1.342 0 0 1-.23 1.888 1.344 1.344 0 0 1-1.889-.23Zm6.433 3.801a1.974 1.974 0 0 1 .341-2.773 1.975 1.975 0 1 1 2.434 3.111 1.976 1.976 0 0 1-2.775-.338Zm7.345 2.799a1.718 1.718 0 1 1 2.705-2.119 1.718 1.718 0 0 1-2.705 2.119Zm7.212 2.574a1.804 1.804 0 1 1 2.842-2.223 1.804 1.804 0 0 1-2.842 2.223Zm7.631 1.89a1.575 1.575 0 1 1 2.482-1.94 1.575 1.575 0 0 1-2.482 1.94Zm7.517 1.588a1.662 1.662 0 0 1 .283-2.333 1.663 1.663 0 0 1 2.333.286 1.66 1.66 0 0 1-.286 2.331 1.66 1.66 0 0 1-2.33-.284Zm8.093.71a1.087 1.087 0 0 1 .189-1.526 1.086 1.086 0 0 1 1.525.186 1.09 1.09 0 0 1-.185 1.528 1.09 1.09 0 0 1-1.529-.188Zm7.848.455a.915.915 0 1 1 1.44-1.131.915.915 0 0 1-1.44 1.131Zm7.721.071a.915.915 0 1 1 1.445-1.13.915.915 0 0 1-1.445 1.13Zm7.786-.481a.8.8 0 1 1 1.263-.988.803.803 0 1 1-1.263.988Zm7.809-1.027a.63.63 0 1 1 .994-.774.63.63 0 0 1-.994.774Zm7.521-1.347a.716.716 0 1 1 1.131-.882.716.716 0 0 1-1.131.882Zm7.508-1.902a.716.716 0 1 1 1.125-.888.716.716 0 0 1-1.125.888Zm7.337-2.355a.744.744 0 1 1 1.045.129.745.745 0 0 1-1.045-.129Zm7.346-2.957a.544.544 0 1 1 .855-.672.544.544 0 0 1-.855.672Zm7-3.296a.517.517 0 1 1 .815-.635.517.517 0 0 1-.815.635Zm6.682-3.658a.603.603 0 1 1 .949-.743.602.602 0 0 1-.949.743Zm6.642-4.261a.458.458 0 1 1 .724-.562.458.458 0 0 1-.724.562Zm6.257-4.579a.43.43 0 1 1 .676-.529.43.43 0 0 1-.676.529Zm5.959-4.978a.372.372 0 1 1 .588-.457.372.372 0 0 1-.588.457Zm5.603-5.32a.373.373 0 1 1 .586-.458.37.37 0 0 1-.065.519.37.37 0 0 1-.521-.061Zm5.301-5.717a.287.287 0 0 1 .453-.354.287.287 0 0 1-.05.403.286.286 0 0 1-.403-.049Zm4.957-6.058.03-.241.241.028-.029.242-.242-.029Zm4.396-6.229a.286.286 0 1 1 .45-.354.286.286 0 0 1-.45.354Zm4.216-6.682.018-.156.156.02-.02.154-.154-.018Zm3.587-6.78.029-.241.241.029-.03.241-.24-.029Zm3.265-7.089.015-.118.117.015-.014.117-.118-.014Zm2.657-7.164.029-.241.241.03-.029.242-.241-.031Zm2.323-7.423.018-.155.155.02-.018.156-.155-.021Zm1.799-7.521.014-.119.118.016-.014.117-.118-.014Zm1.302-7.613.013-.118.119.015-.014.119-.118-.016Zm.882-7.72.002-.021.022.003-.004.021-.02-.003ZM184.241 68.203l.002-.022.022.003-.003.021-.021-.002Zm-6.752 3.717.002-.022.021.004-.002.02-.021-.002Zm-6.514 4.154.003-.021.021.002-.002.021-.022-.002Zm-11.625-2.157.013-.119.119.015-.017.116-.115-.012Zm-6.063 5.034a.255.255 0 0 1 .044-.361.258.258 0 0 1 .363.043.26.26 0 0 1-.046.362.257.257 0 0 1-.361-.044Zm-5.603 5.259.033-.28.282.034-.034.283-.281-.036Zm-5.284 5.596.037-.281.279.034-.034.28-.282-.033Zm-4.958 5.92.028-.244.244.032-.03.242-.242-.03Zm-4.869 6.416a.543.543 0 1 1 .858-.671.543.543 0 0 1-.858.671Zm-4.548 6.728a.943.943 0 0 1 .163-1.326.944.944 0 1 1 1.164 1.487.945.945 0 0 1-1.327-.161Zm-3.367 6.353a.344.344 0 1 1 .542-.422.344.344 0 0 1-.542.422Zm-3.703 7.153a.746.746 0 0 1 1.173-.918.744.744 0 0 1-1.173.918Zm-2.91 7.05a.601.601 0 1 1 .949-.739.601.601 0 0 1-.949.739Zm-2.287 7.071a.257.257 0 0 1 .042-.362.26.26 0 0 1 .364.044.26.26 0 0 1-.046.362.257.257 0 0 1-.36-.044Zm-2.276 7.543a.46.46 0 0 1 .078-.645.46.46 0 0 1 .644.08.457.457 0 1 1-.722.565Zm-1.656 7.523a.43.43 0 1 1 .677-.529.43.43 0 0 1-.677.529Zm-1.234 7.635a.43.43 0 1 1 .678-.527.43.43 0 0 1-.678.527Zm-.975 7.854a.719.719 0 0 1 .121-1.007.716.716 0 1 1-.121 1.007Zm-.373 7.771a.803.803 0 0 1 1.264-.988.802.802 0 0 1-1.264.988Zm-.067 7.9a1.087 1.087 0 1 1 1.71-1.344 1.087 1.087 0 0 1-1.71 1.344Zm.64 7.681a1.09 1.09 0 0 1 1.715-1.342 1.09 1.09 0 1 1-1.715 1.342Zm.635 7.996a1.634 1.634 0 0 1 .279-2.292 1.632 1.632 0 1 1-.279 2.292Zm1.673 7.462a1.461 1.461 0 0 1 2.3-1.8 1.46 1.46 0 0 1-2.3 1.8Zm2.17 7.32a1.23 1.23 0 1 1 1.937-1.518 1.23 1.23 0 0 1-1.937 1.518Zm2.418 7.337a1.232 1.232 0 1 1 1.94-1.518 1.232 1.232 0 0 1-1.94 1.518Zm2.855 7.18a1.232 1.232 0 1 1 1.942-1.518 1.232 1.232 0 0 1-1.942 1.518Zm3.478 6.84a1.002 1.002 0 0 1 .174-1.407 1 1 0 1 1 1.234 1.577 1.002 1.002 0 0 1-1.408-.17Zm3.74 6.747a.944.944 0 1 1 1.488-1.165.944.944 0 0 1-1.488 1.165Zm4.027 6.604a1.032 1.032 0 0 1 .178-1.448 1.029 1.029 0 0 1 1.446.178 1.032 1.032 0 0 1-1.624 1.27Zm4.413 6.34a1.145 1.145 0 1 1 1.807-1.408 1.145 1.145 0 0 1-1.807 1.408Zm4.58 6.223a1.46 1.46 0 1 1 2.302-1.797 1.46 1.46 0 0 1-2.302 1.797Zm5.223 5.695a1.46 1.46 0 1 1 2.3-1.8 1.46 1.46 0 0 1-2.3 1.8Zm5.411 5.483a1.602 1.602 0 1 1 2.524-1.975 1.603 1.603 0 1 1-2.524 1.975Zm5.698 5.165a1.776 1.776 0 1 1 2.798-2.188 1.776 1.776 0 0 1-2.798 2.188Zm6.127 4.698a1.777 1.777 0 1 1 2.798-2.189 1.775 1.775 0 0 1-.306 2.492 1.775 1.775 0 0 1-2.492-.303Zm6.227 4.453a2.003 2.003 0 1 1 3.157-2.47 2.004 2.004 0 0 1-3.157 2.47Zm6.721 3.87a1.918 1.918 0 1 1 3.023-2.365 1.918 1.918 0 0 1-3.023 2.365Zm6.644 3.699a2.233 2.233 0 1 1 3.518-2.751 2.233 2.233 0 0 1-3.518 2.751Zm7.247 2.968a2.006 2.006 0 1 1 3.159-2.471c.68.869.525 2.132-.346 2.814a2.007 2.007 0 0 1-2.813-.343Zm7.167 2.734a2.12 2.12 0 1 1 3.337-2.615 2.12 2.12 0 0 1-3.337 2.615Zm7.535 2.123a1.92 1.92 0 1 1 3.025-2.365 1.92 1.92 0 0 1-3.025 2.365Zm7.212 2.023a2.32 2.32 0 1 1 3.652-2.856 2.32 2.32 0 0 1-3.652 2.856Zm7.751 1.223a2.12 2.12 0 1 1 3.34-2.61 2.12 2.12 0 0 1-3.34 2.61Zm7.686.871a2.12 2.12 0 1 1 3.337-2.613 2.12 2.12 0 0 1-3.337 2.613Zm8.169.063a1.519 1.519 0 1 1 2.387-1.873 1.519 1.519 0 0 1-2.387 1.873Zm7.961-.23a1.234 1.234 0 0 1 .209-1.731 1.232 1.232 0 0 1 1.519 1.942 1.233 1.233 0 0 1-1.728-.211Zm7.648-.462a1.319 1.319 0 1 1 2.074-1.622 1.319 1.319 0 0 1-2.074 1.622Zm7.641-.947a1.318 1.318 0 1 1 2.077-1.624 1.318 1.318 0 0 1-2.077 1.624Zm7.772-1.565a1.118 1.118 0 1 1 1.76-1.372 1.118 1.118 0 0 1-1.76 1.372Zm7.641-1.989a.915.915 0 0 1 .158-1.285.914.914 0 1 1 1.127 1.44.915.915 0 0 1-1.285-.155Zm7.493-2.416a.744.744 0 1 1 1.172-.917.744.744 0 1 1-1.172.917Zm7.094-2.658a.915.915 0 1 1 1.285.156.915.915 0 0 1-1.285-.156Zm7.266-3.363a.6.6 0 1 1 .947-.74.6.6 0 0 1-.947.74Zm6.843-3.602a.602.602 0 1 1 .948-.741.602.602 0 0 1-.948.741Zm6.582-3.977a.63.63 0 1 1 .99-.777.63.63 0 0 1-.99.777Zm6.382-4.409a.601.601 0 1 1 .95-.738.601.601 0 0 1-.95.738Zm6.148-4.809a.542.542 0 0 1 .096-.763.542.542 0 1 1 .669.855.543.543 0 0 1-.765-.092Zm5.857-5.168a.427.427 0 0 1 .074-.602.429.429 0 1 1 .529.675.428.428 0 0 1-.603-.073Zm5.442-5.428a.46.46 0 0 1 .723-.566.459.459 0 0 1-.723.566Zm5.158-5.788a.429.429 0 1 1 .675-.528.429.429 0 0 1-.675.528Zm4.8-6.081a.429.429 0 1 1 .676-.528.429.429 0 0 1-.676.528Zm4.53-6.432a.287.287 0 1 1 .403.047.289.289 0 0 1-.403-.047Zm3.977-6.558a.345.345 0 0 1 .058-.483.345.345 0 0 1 .424.542.344.344 0 0 1-.482-.059Zm3.468-6.703a.515.515 0 1 1 .815-.637.515.515 0 0 1-.815.637Zm3.417-7.189a.258.258 0 0 1 .042-.362.258.258 0 1 1-.042.362Zm2.789-7.213a.256.256 0 0 1 .045-.361.257.257 0 1 1-.045.361Zm2.479-7.458.013-.117.119.014-.016.117-.116-.014Zm1.863-7.458.019-.157.157.019-.019.157-.157-.019ZM142.36 77.378l.028-.244.242.033-.029.24-.241-.029Zm-5.4 5.593a.256.256 0 0 1 .046-.36.256.256 0 0 1 .359.043.258.258 0 0 1-.042.362.258.258 0 0 1-.363-.045Zm-5.006 5.831.034-.282.282.036-.035.28-.281-.034Zm-4.808 6.212a.344.344 0 1 1 .544-.423.344.344 0 0 1-.544.423Zm-4.597 6.576a.659.659 0 1 1 1.035-.815.659.659 0 0 1-1.035.815Zm-4.27 6.835a1.002 1.002 0 1 1 1.579-1.234 1.002 1.002 0 0 1-1.579 1.234Zm-3.688 6.89a1.116 1.116 0 1 1 1.758-1.376 1.116 1.116 0 0 1-1.758 1.376Zm-3.581 7.302a1.575 1.575 0 1 1 2.483-1.941 1.575 1.575 0 0 1-2.483 1.941Zm-2.1 6.625a.66.66 0 0 1 .114-.925.661.661 0 0 1 .924.113.661.661 0 0 1-.111.926.66.66 0 0 1-.927-.114Zm-2.499 7.404a.742.742 0 0 1 .129-1.044.744.744 0 1 1-.129 1.044Zm-1.762 7.277a.459.459 0 1 1 .723-.565.459.459 0 0 1-.723.565Zm-1.788 7.724a.743.743 0 0 1 .13-1.044.742.742 0 0 1 1.043.126.745.745 0 0 1-1.173.918Zm-1.326 7.776a.943.943 0 0 1 .162-1.326.944.944 0 1 1 1.165 1.489.946.946 0 0 1-1.327-.163Zm-.523 7.535a.716.716 0 1 1 1.123-.887.716.716 0 0 1-1.123.887Zm-.853 8.161a1.431 1.431 0 1 1 2.251-1.767 1.431 1.431 0 0 1-2.251 1.767Zm.124 7.737a1.432 1.432 0 1 1 2.011.246 1.432 1.432 0 0 1-2.011-.246Zm.55 7.723a1.46 1.46 0 1 1 2.298-1.8 1.46 1.46 0 0 1-2.298 1.8Zm.881 7.759a1.633 1.633 0 1 1 2.568-2.012 1.633 1.633 0 0 1-2.568 2.012Zm1.136 7.823a2.006 2.006 0 0 1 .343-2.817 2.006 2.006 0 0 1 2.471 3.158 2.003 2.003 0 0 1-2.814-.341Zm2.158 7.262a1.662 1.662 0 0 1 .284-2.333 1.662 1.662 0 0 1 2.049 2.618 1.662 1.662 0 0 1-2.333-.285Zm2.389 7.291a1.518 1.518 0 0 1 2.39-1.87 1.519 1.519 0 0 1-.258 2.133 1.519 1.519 0 0 1-2.132-.263Zm2.579 7.33a1.631 1.631 0 1 1 2.571-2.012 1.63 1.63 0 0 1-.282 2.289 1.631 1.631 0 0 1-2.289-.277Zm2.986 7.155a1.775 1.775 0 1 1 2.797-2.186 1.775 1.775 0 0 1-2.797 2.186Zm3.549 6.843a1.662 1.662 0 0 1 .284-2.333 1.662 1.662 0 0 1 2.049 2.619 1.663 1.663 0 0 1-2.333-.286Zm3.887 6.669a1.662 1.662 0 1 1 2.615-2.046 1.662 1.662 0 0 1-2.615 2.046Zm4.02 6.628a1.92 1.92 0 1 1 3.023-2.368 1.92 1.92 0 0 1-3.023 2.368Zm4.599 6.202a1.92 1.92 0 1 1 3.023-2.365 1.92 1.92 0 0 1-3.023 2.365Zm4.83 6.027a2.033 2.033 0 1 1 3.203-2.506 2.033 2.033 0 0 1-3.203 2.506Zm5.309 5.616a1.976 1.976 0 1 1 3.113-2.435 1.976 1.976 0 0 1-3.113 2.435Zm5.352 5.525a2.237 2.237 0 0 1 .382-3.138 2.235 2.235 0 1 1-.382 3.138Zm5.972 4.943a2.089 2.089 0 0 1 .358-2.932 2.088 2.088 0 1 1 2.575 3.291 2.087 2.087 0 0 1-2.933-.359Zm6.07 4.746a2.148 2.148 0 1 1 3.384-2.645 2.148 2.148 0 0 1-3.384 2.645Zm6.434 4.313a2.09 2.09 0 1 1 3.293-2.576 2.091 2.091 0 0 1-3.293 2.576Zm6.602 3.995a2.092 2.092 0 0 1 3.293-2.576 2.091 2.091 0 0 1-3.293 2.576Zm6.719 3.695a2.233 2.233 0 1 1 3.517-2.753 2.233 2.233 0 0 1-3.517 2.753Zm7.018 3.219a2.231 2.231 0 0 1 .385-3.132 2.232 2.232 0 1 1 2.75 3.515 2.233 2.233 0 0 1-3.135-.383Zm7.064 2.922a2.4 2.4 0 0 1 .412-3.374 2.405 2.405 0 1 1-.412 3.374Zm7.546 2.251a2.12 2.12 0 1 1 3.34-2.61 2.12 2.12 0 0 1-3.34 2.61Zm7.396 2.049a2.232 2.232 0 0 1 .382-3.134 2.233 2.233 0 0 1 3.136.381 2.236 2.236 0 0 1-.382 3.138 2.236 2.236 0 0 1-3.136-.385Zm7.436 1.675a2.378 2.378 0 1 1 3.746-2.932 2.378 2.378 0 0 1-3.746 2.932Zm7.574 1.199a2.463 2.463 0 0 1 .422-3.457 2.463 2.463 0 0 1 3.036 3.881 2.463 2.463 0 0 1-3.458-.424Zm7.749.676a2.374 2.374 0 0 1 .408-3.336 2.376 2.376 0 1 1-.408 3.336Zm7.986.077a2.033 2.033 0 1 1 3.203-2.505 2.033 2.033 0 0 1-3.203 2.505Zm7.712-.136a2.035 2.035 0 0 1 3.204-2.506 2.034 2.034 0 0 1-3.204 2.506Zm7.73-.601a2.004 2.004 0 0 1 3.158-2.471 2.004 2.004 0 1 1-3.158 2.471Zm8.098-1.349a1.462 1.462 0 0 1 .248-2.052 1.462 1.462 0 0 1 2.052.253c.496.633.384 1.55-.252 2.048a1.459 1.459 0 0 1-2.048-.249Zm7.49-1.361a1.575 1.575 0 1 1 2.209.271 1.572 1.572 0 0 1-2.209-.271Zm7.49-1.853a1.577 1.577 0 0 1 2.482-1.942 1.576 1.576 0 0 1-2.482 1.942Zm7.646-2.486a1.264 1.264 0 0 1 .216-1.772 1.26 1.26 0 1 1 1.553 1.985 1.261 1.261 0 0 1-1.769-.213Zm7.131-2.601a1.377 1.377 0 0 1 2.167-1.696c.467.598.36 1.462-.238 1.929a1.374 1.374 0 0 1-1.929-.233Zm7.388-3.333a1.002 1.002 0 1 1 1.58-1.233 1.002 1.002 0 0 1-1.58 1.233Zm6.963-3.532a.917.917 0 1 1 1.44-1.13.917.917 0 0 1-1.44 1.13Zm6.674-3.851a.947.947 0 1 1 1.493-1.165.947.947 0 0 1-1.493 1.165Zm6.47-4.239a.916.916 0 0 1 .159-1.286.914.914 0 1 1 1.128 1.442.917.917 0 0 1-1.287-.156Zm6.21-4.582a.944.944 0 1 1 1.488-1.164.945.945 0 1 1-1.488 1.164Zm6.123-5.067a.715.715 0 1 1 1.126-.883.715.715 0 0 1-1.126.883Zm5.658-5.249a.716.716 0 1 1 1.126-.883.716.716 0 0 1-1.126.883Zm5.36-5.565a.714.714 0 0 1 .122-1.004.716.716 0 0 1 .882 1.128.716.716 0 0 1-1.004-.124Zm5.187-5.973a.517.517 0 1 1 .816-.635.517.517 0 0 1-.816.635Zm4.625-6.066a.63.63 0 1 1 .99-.777.63.63 0 0 1-.99.777Zm4.542-6.531a.373.373 0 0 1 .586-.459.37.37 0 0 1-.064.522.371.371 0 0 1-.522-.063Zm4.052-6.667a.285.285 0 1 1 .446-.355.285.285 0 0 1-.446.355Zm3.531-6.768a.372.372 0 1 1 .583-.461.372.372 0 0 1-.583.461Zm3.239-7.033a.372.372 0 1 1 .585-.461.372.372 0 0 1-.585.461Zm3.034-7.358.02-.156.155.019-.016.158-.159-.021Zm2.493-7.383.002-.021.022.003-.004.021-.02-.003ZM126.424 81.948a.289.289 0 0 1 .047-.404.287.287 0 0 1 .404.05.284.284 0 0 1-.051.4.285.285 0 0 1-.4-.046Zm-4.766 6.035a.257.257 0 0 1 .045-.361.258.258 0 0 1 .362.042.258.258 0 0 1-.407.319Zm-4.399 6.247.03-.238.24.027-.029.242-.241-.03Zm-4.105 6.512.03-.24.24.03-.027.243-.243-.033Zm-4.453 7.269a1.003 1.003 0 0 1 1.581-1.237 1.003 1.003 0 0 1-.175 1.409 1.001 1.001 0 0 1-1.406-.172Zm-3.89 7.299a1.605 1.605 0 0 1 2.526-1.977 1.604 1.604 0 0 1-2.526 1.977Zm-2.81 6.912a1.316 1.316 0 1 1 2.075-1.623 1.316 1.316 0 0 1-.227 1.848c-.574.449-1.4.348-1.848-.225Zm-2.661 7.246a1.316 1.316 0 1 1 2.075-1.622 1.316 1.316 0 0 1-2.074 1.622Zm-1.838 7.033a.744.744 0 1 1 1.172-.918.744.744 0 0 1-1.172.918Zm-2.183 7.72a1.146 1.146 0 1 1 1.803-1.414 1.146 1.146 0 0 1-1.803 1.414Zm-1.517 7.6a1.146 1.146 0 1 1 1.805-1.413 1.146 1.146 0 0 1-1.805 1.413Zm-1.079 7.637a1.144 1.144 0 1 1 1.803-1.411c.392.5.303 1.218-.196 1.608a1.143 1.143 0 0 1-1.607-.197Zm-.909 7.875a1.434 1.434 0 0 1 2.257-1.766 1.432 1.432 0 0 1-2.257 1.766Zm-.617 7.985a1.861 1.861 0 1 1 2.931-2.295 1.861 1.861 0 0 1-2.93 2.295Zm.151 7.707a1.86 1.86 0 0 1 .32-2.613 1.863 1.863 0 1 1-.32 2.613Zm.348 7.852a2.092 2.092 0 1 1 3.296-2.575 2.092 2.092 0 0 1-3.296 2.575Zm.927 7.682a2.12 2.12 0 1 1 3.34-2.613 2.12 2.12 0 0 1-3.34 2.613Zm1.219 7.707a2.263 2.263 0 1 1 3.564-2.79 2.263 2.263 0 0 1-3.564 2.79Zm1.749 7.522a2.26 2.26 0 1 1 3.562-2.786 2.26 2.26 0 0 1-3.562 2.786Zm2.117 7.441a2.29 2.29 0 1 1 3.608-2.823 2.29 2.29 0 0 1-3.608 2.823Zm2.307 7.473a2.578 2.578 0 1 1 4.059-3.181 2.578 2.578 0 0 1-4.059 3.181Zm3.028 7.063a2.433 2.433 0 1 1 3.834-3 2.434 2.434 0 1 1-3.834 3Zm3.407 6.896a2.292 2.292 0 1 1 3.608-2.824 2.29 2.29 0 0 1-.395 3.214 2.29 2.29 0 0 1-3.213-.39Zm3.871 6.631a2.004 2.004 0 1 1 3.156-2.47 2.004 2.004 0 0 1-3.156 2.47Zm3.812 6.755a2.261 2.261 0 1 1 3.563-2.788 2.263 2.263 0 1 1-3.563 2.788Zm4.265 6.451a2.349 2.349 0 1 1 3.698-2.896 2.349 2.349 0 0 1-3.698 2.896Zm4.694 6.131a2.35 2.35 0 0 1 3.7-2.895 2.349 2.349 0 0 1-3.7 2.895Zm4.88 5.98a2.49 2.49 0 0 1 .428-3.496 2.49 2.49 0 1 1 3.07 3.924 2.492 2.492 0 0 1-3.498-.428Zm5.551 5.422a2.177 2.177 0 1 1 3.43-2.68 2.177 2.177 0 0 1-3.43 2.68Zm5.611 5.315a2.15 2.15 0 0 1 .368-3.017 2.149 2.149 0 1 1-.368 3.017Zm5.671 5.179a2.377 2.377 0 1 1 3.742-2.931 2.377 2.377 0 0 1-3.742 2.931Zm5.902 4.881a2.664 2.664 0 1 1 4.196-3.283 2.664 2.664 0 0 1-4.196 3.283Zm6.493 4.279a2.492 2.492 0 0 1 .426-3.498 2.49 2.49 0 1 1 3.069 3.924 2.49 2.49 0 0 1-3.495-.426Zm6.645 3.993a2.433 2.433 0 1 1 3.83-3.001 2.433 2.433 0 0 1-3.83 3.001Zm6.774 3.696a2.432 2.432 0 0 1 .418-3.417 2.434 2.434 0 1 1-.418 3.417Zm7.012 3.292a2.378 2.378 0 1 1 3.746-2.93 2.378 2.378 0 0 1-3.746 2.93Zm6.856 3.173a2.747 2.747 0 0 1 .47-3.859 2.748 2.748 0 1 1 3.388 4.33 2.748 2.748 0 0 1-3.858-.471Zm7.421 2.461a2.577 2.577 0 0 1 .443-3.617 2.576 2.576 0 1 1 3.176 4.058 2.576 2.576 0 0 1-3.619-.441Zm7.394 2.196a2.576 2.576 0 1 1 4.058-3.175 2.576 2.576 0 0 1-4.058 3.175Zm7.709 1.634a2.319 2.319 0 1 1 3.653-2.858 2.319 2.319 0 1 1-3.653 2.858Zm7.488 1.477a2.461 2.461 0 1 1 3.879-3.034 2.462 2.462 0 1 1-3.879 3.034Zm7.667.981a2.46 2.46 0 0 1 .422-3.455 2.461 2.461 0 1 1 3.034 3.878 2.463 2.463 0 0 1-3.456-.423Zm7.895.431a2.204 2.204 0 1 1 3.472-2.716 2.204 2.204 0 1 1-3.472 2.716Zm7.567.293a2.435 2.435 0 1 1 3.837-3 2.435 2.435 0 0 1-3.837 3Zm7.944-.41a2.117 2.117 0 0 1 .363-2.973 2.12 2.12 0 0 1 2.975.362 2.12 2.12 0 0 1-3.338 2.611Zm7.901-.797a1.861 1.861 0 1 1 2.932-2.294 1.861 1.861 0 0 1-2.932 2.294Zm7.661-1.055a1.862 1.862 0 1 1 2.932-2.292 1.862 1.862 0 0 1-2.932 2.292Zm8.012-1.782a1.316 1.316 0 1 1 2.074-1.62 1.316 1.316 0 0 1-2.074 1.62Zm7.416-1.779a1.432 1.432 0 1 1 2.252-1.768 1.432 1.432 0 0 1-2.252 1.768Zm7.65-2.446a1.086 1.086 0 1 1 1.713-1.34 1.088 1.088 0 1 1-1.713 1.34Zm7.443-2.766a.888.888 0 1 1 1.398-1.095.888.888 0 0 1-1.398 1.095Zm7.248-3.114a.714.714 0 0 1 .125-1.003.716.716 0 1 1-.125 1.003Zm6.931-3.364a.715.715 0 1 1 1.127-.882.716.716 0 1 1-1.127.882Zm6.544-3.575a1.002 1.002 0 1 1 1.58-1.235 1.002 1.002 0 0 1-1.58 1.235Zm6.716-4.22a.803.803 0 1 1 1.265-.989.803.803 0 0 1-1.265.989Zm6.38-4.473a.715.715 0 1 1 1.126-.883.715.715 0 0 1-1.126.883Zm6.075-4.753a.743.743 0 1 1 1.172-.917.743.743 0 1 1-1.172.917Zm5.888-5.125a.63.63 0 1 1 .99-.777.63.63 0 0 1-.99.777Zm5.4-5.259a.83.83 0 1 1 1.306-1.024.83.83 0 0 1-1.306 1.024Zm5.386-5.757a.658.658 0 1 1 1.037-.812.659.659 0 0 1-1.037.812Zm5.132-6.075a.429.429 0 1 1 .678-.525.429.429 0 0 1-.678.525Zm4.625-6.175a.43.43 0 1 1 .676-.529.43.43 0 0 1-.676.529Zm4.319-6.436a.43.43 0 1 1 .677-.529.43.43 0 0 1-.677.529Zm4.126-6.769.034-.284.284.036-.036.281-.282-.033Zm-262.937-146.9.028-.244.243.031-.03.242-.241-.029Zm-3.607 6.852.037-.282.28.034-.033.282-.284-.034Zm-3.171 6.959.019-.157.157.02-.02.156-.156-.019Zm-3.48 7.622a.83.83 0 1 1 1.311-1.022.83.83 0 0 1-1.31 1.022Zm-2.135 6.993a.347.347 0 0 1 .058-.485.345.345 0 1 1-.058.485Zm-3.052 8.113a1.49 1.49 0 1 1 2.346-1.836 1.49 1.49 0 0 1-2.346 1.836Zm-1.561 7.333a1.2 1.2 0 0 1 .206-1.685 1.203 1.203 0 1 1-.206 1.685Zm-1.718 7.834a1.575 1.575 0 1 1 2.48-1.94 1.575 1.575 0 0 1-2.48 1.94Zm-1.067 7.681a1.604 1.604 0 1 1 2.527-1.976 1.604 1.604 0 0 1-2.527 1.976Zm-.847 7.852a1.862 1.862 0 1 1 2.932-2.294 1.862 1.862 0 0 1-2.932 2.294Zm-.039 7.542a1.601 1.601 0 0 1 .275-2.249 1.602 1.602 0 1 1 1.976 2.525 1.602 1.602 0 0 1-2.25-.276Zm-.486 8.198a2.348 2.348 0 1 1 3.699-2.893 2.348 2.348 0 0 1-3.699 2.893Zm.808 7.473a1.976 1.976 0 1 1 3.112-2.436 1.976 1.976 0 0 1-3.112 2.436Zm.65 7.859a2.291 2.291 0 1 1 3.607-2.826 2.291 2.291 0 0 1-3.607 2.826Zm1.319 7.581a2.235 2.235 0 1 1 3.52-2.755 2.235 2.235 0 0 1-3.52 2.755Zm1.598 7.584a2.29 2.29 0 1 1 3.61-2.823 2.29 2.29 0 0 1-3.61 2.823Zm1.896 7.553a2.46 2.46 0 0 1 .423-3.456 2.46 2.46 0 0 1 3.455.422 2.46 2.46 0 0 1-.42 3.456 2.46 2.46 0 0 1-3.458-.422Zm2.294 7.42a2.578 2.578 0 1 1 4.06-3.177 2.578 2.578 0 0 1-4.06 3.177Zm2.641 7.305a2.72 2.72 0 1 1 4.285-3.355 2.72 2.72 0 0 1-4.285 3.355Zm3.078 7.097a2.749 2.749 0 1 1 4.33-3.388 2.749 2.749 0 1 1-4.33 3.388Zm3.675 6.734a2.49 2.49 0 0 1 .429-3.496 2.487 2.487 0 0 1 3.494.427 2.492 2.492 0 1 1-3.923 3.069Zm3.772 6.746a2.52 2.52 0 0 1 3.97-3.106 2.52 2.52 0 0 1-3.97 3.106Zm4.075 6.571a2.577 2.577 0 1 1 4.06-3.176 2.577 2.577 0 0 1-4.06 3.176Zm4.555 6.233a2.463 2.463 0 1 1 3.88-3.035 2.463 2.463 0 0 1-3.88 3.035Zm4.542 6.251a2.72 2.72 0 1 1 4.287-3.35 2.72 2.72 0 0 1-4.287 3.35Zm5.229 5.706a2.518 2.518 0 0 1 .432-3.537 2.52 2.52 0 1 1-.432 3.537Zm5.336 5.579a2.52 2.52 0 1 1 3.97-3.105 2.52 2.52 0 0 1-3.97 3.105Zm5.654 5.278a2.465 2.465 0 0 1 .423-3.46 2.464 2.464 0 0 1 3.036 3.881 2.465 2.465 0 0 1-3.459-.421Zm5.711 5.143a2.66 2.66 0 0 1 .457-3.737 2.662 2.662 0 1 1 3.282 4.194 2.663 2.663 0 0 1-3.739-.457Zm6.148 4.694a2.636 2.636 0 0 1 4.151-3.248 2.635 2.635 0 0 1-4.151 3.248Zm6.252 4.48a2.722 2.722 0 0 1 4.286-3.353 2.72 2.72 0 0 1-4.286 3.353Zm6.565 4.077a2.719 2.719 0 0 1 .468-3.817 2.719 2.719 0 1 1 3.351 4.284 2.72 2.72 0 0 1-3.819-.467Zm6.705 3.792a2.778 2.778 0 1 1 4.375-3.425 2.778 2.778 0 0 1-4.375 3.425Zm7.05 3.319a2.636 2.636 0 1 1 4.152-3.248 2.636 2.636 0 0 1-4.152 3.248Zm6.966 3.163a2.778 2.778 0 1 1 4.378-3.42 2.778 2.778 0 0 1-4.378 3.42Zm7.22 2.721a2.807 2.807 0 1 1 4.422-3.46 2.807 2.807 0 0 1-4.422 3.46Zm7.47 2.259a2.635 2.635 0 0 1 .45-3.701 2.636 2.636 0 0 1 3.248 4.152 2.632 2.632 0 0 1-3.698-.451Zm7.543 1.916a2.549 2.549 0 1 1 4.014-3.142 2.549 2.549 0 0 1-4.014 3.142Zm7.507 1.639a2.635 2.635 0 1 1 4.149-3.249 2.635 2.635 0 0 1-4.149 3.249Zm7.767 1.112a2.434 2.434 0 1 1 3.834-3.001 2.434 2.434 0 0 1-3.834 3.001Zm7.668.847a2.434 2.434 0 1 1 3.833-3 2.434 2.434 0 0 1-3.833 3Zm7.613.531a2.577 2.577 0 1 1 4.06-3.175 2.577 2.577 0 0 1-4.06 3.175Zm7.653.129a2.662 2.662 0 1 1 4.195-3.283 2.664 2.664 0 0 1-4.195 3.283Zm7.723-.318a2.663 2.663 0 1 1 4.197-3.28 2.663 2.663 0 0 1-4.197 3.28Zm8.016-.95a2.235 2.235 0 0 1 3.519-2.754 2.234 2.234 0 0 1-3.519 2.754Zm7.715-1.134a2.148 2.148 0 1 1 3.385-2.645 2.148 2.148 0 0 1-3.385 2.645Zm8.235-1.967a1.316 1.316 0 0 1 .226-1.85 1.317 1.317 0 1 1 1.622 2.074 1.317 1.317 0 0 1-1.848-.224Zm7.664-1.965a1.116 1.116 0 1 1 1.76-1.377 1.116 1.116 0 0 1-1.76 1.377Zm7.415-2.219a1.116 1.116 0 1 1 1.757-1.376 1.116 1.116 0 0 1-1.757 1.376Zm7.288-2.576a1.117 1.117 0 1 1 1.756-1.38 1.117 1.117 0 0 1-1.756 1.38Zm7.239-3.008a1.003 1.003 0 0 1 1.579-1.236 1.002 1.002 0 0 1-1.579 1.236Zm7.072-3.351a.89.89 0 0 1 .152-1.248.89.89 0 0 1 1.248.153.89.89 0 0 1-1.4 1.095Zm6.991-3.766a.658.658 0 1 1 1.038-.81.658.658 0 0 1-1.038.81Zm6.59-3.939a.715.715 0 0 1 1.127-.881.716.716 0 1 1-1.127.881Zm6.47-4.327a.658.658 0 1 1 1.037-.81.658.658 0 0 1-1.037.81Zm6.22-4.621a.631.631 0 0 1 .993-.777.632.632 0 0 1-.108.885.633.633 0 0 1-.885-.108Zm5.983-4.926a.6.6 0 1 1 .947-.741.599.599 0 0 1-.104.844.6.6 0 0 1-.843-.103Zm5.7-5.194a.601.601 0 0 1 .947-.74.6.6 0 1 1-.947.74Zm5.505-5.525a.516.516 0 1 1 .814-.635.516.516 0 0 1-.814.635Zm5.381-5.912a.261.261 0 0 1 .044-.364.259.259 0 1 1-.044.364Zm9.649-12.37.002-.022.022.003-.003.021-.021-.002ZM87.567 113.789l.003-.022.021.004-.002.021-.022-.003Zm-5.434 14.765a.343.343 0 1 1 .54-.424.343.343 0 0 1-.54.424Zm-1.921 7.34.036-.281.28.033-.033.283-.283-.035Zm-1.954 7.732a.515.515 0 1 1 .81-.636.515.515 0 0 1-.81.636Zm-1.35 7.617a.514.514 0 1 1 .81-.634.512.512 0 0 1-.09.722.512.512 0 0 1-.72-.088Zm-1.402 7.988a1.034 1.034 0 0 1 .176-1.449 1.033 1.033 0 0 1 1.448.178 1.03 1.03 0 1 1-1.624 1.271Zm-.862 7.888a1.346 1.346 0 1 1 2.121-1.658 1.346 1.346 0 0 1-2.121 1.658Zm-.251 7.719a1.347 1.347 0 0 1 2.12-1.659c.46.586.353 1.431-.231 1.888a1.344 1.344 0 0 1-1.89-.229Zm-.359 8.092a1.947 1.947 0 1 1 3.066-2.401 1.947 1.947 0 0 1-3.066 2.401Zm.452 7.727a1.975 1.975 0 0 1 .338-2.774 1.975 1.975 0 1 1 2.435 3.111c-.86.672-2.1.523-2.773-.337Zm.942 7.598a1.833 1.833 0 1 1 2.886-2.262 1.833 1.833 0 0 1-2.886 2.262Zm1.209 7.622a1.833 1.833 0 1 1 2.886-2.261 1.833 1.833 0 0 1-2.886 2.261Zm1.41 7.681a2.034 2.034 0 1 1 3.204-2.506 2.034 2.034 0 0 1-3.204 2.506Zm1.929 7.47a2.005 2.005 0 1 1 3.159-2.47 2.005 2.005 0 0 1-3.159 2.47Zm1.929 7.648a2.435 2.435 0 1 1 3.835-3.001 2.435 2.435 0 0 1-3.835 3.001Zm2.646 7.244a2.377 2.377 0 1 1 3.743-2.93 2.377 2.377 0 0 1-3.743 2.93Zm2.909 7.17a2.433 2.433 0 1 1 3.833-2.999 2.433 2.433 0 1 1-3.834 2.999Zm3.307 6.973a2.434 2.434 0 1 1 3.834-2.999 2.434 2.434 0 1 1-3.834 2.999Zm3.535 6.888a2.519 2.519 0 0 1 .434-3.537 2.52 2.52 0 1 1-.434 3.537Zm3.828 6.729a2.662 2.662 0 0 1 .457-3.737 2.662 2.662 0 1 1-.457 3.737Zm4.006 6.64a2.948 2.948 0 0 1 .507-4.139 2.948 2.948 0 1 1 3.635 4.645 2.95 2.95 0 0 1-4.142-.506Zm4.547 6.241a2.92 2.92 0 0 1 .504-4.099 2.92 2.92 0 0 1 3.598 4.598 2.92 2.92 0 0 1-4.102-.499Zm4.969 5.922a2.748 2.748 0 1 1 4.329-3.387 2.748 2.748 0 1 1-4.329 3.387Zm5.629 5.386a2.091 2.091 0 1 1 3.294-2.578 2.091 2.091 0 0 1-3.294 2.578Zm5.183 5.697a2.346 2.346 0 0 1 .403-3.296 2.347 2.347 0 1 1 2.893 3.697 2.348 2.348 0 0 1-3.296-.401Zm5.223 5.605a2.864 2.864 0 1 1 4.508-3.533 2.864 2.864 0 0 1-4.508 3.533Zm5.9 4.992a2.863 2.863 0 0 1 4.51-3.529 2.864 2.864 0 1 1-4.51 3.529Zm6.02 4.8a2.979 2.979 0 1 1 4.69-3.674 2.979 2.979 0 0 1-4.69 3.674Zm6.526 4.275a2.692 2.692 0 1 1 4.239-3.321 2.692 2.692 0 0 1-4.239 3.321Zm6.471 4.174a2.776 2.776 0 0 1 .478-3.899 2.779 2.779 0 1 1-.478 3.899Zm6.659 3.862a2.835 2.835 0 1 1 4.464-3.496 2.835 2.835 0 0 1-4.464 3.496Zm6.938 3.456a2.773 2.773 0 0 1 .476-3.897 2.779 2.779 0 1 1-.476 3.897Zm7.034 3.178a2.778 2.778 0 0 1 4.376-3.424 2.777 2.777 0 0 1-.476 3.899 2.777 2.777 0 0 1-3.9-.475Zm7.252 2.78a2.692 2.692 0 1 1 4.24-3.318 2.692 2.692 0 0 1-4.24 3.318Zm7.242 2.546a2.777 2.777 0 1 1 4.373-3.428 2.777 2.777 0 0 1-4.373 3.428Zm7.451 2.117a2.75 2.75 0 0 1 .474-3.86 2.749 2.749 0 0 1 3.387 4.329 2.75 2.75 0 0 1-3.861-.469Zm7.542 1.767a2.72 2.72 0 1 1 4.283-3.355 2.72 2.72 0 0 1-4.283 3.355Zm7.616 1.41a2.691 2.691 0 1 1 4.239-3.317 2.691 2.691 0 0 1-4.239 3.317Zm7.615 1.099a2.748 2.748 0 1 1 3.858.471 2.747 2.747 0 0 1-3.858-.471Zm7.745.667a2.664 2.664 0 0 1 .455-3.739 2.663 2.663 0 0 1 3.738.459 2.662 2.662 0 1 1-4.193 3.28Zm7.654.394a2.75 2.75 0 1 1 4.333-3.388 2.75 2.75 0 0 1-4.333 3.388Zm7.624.059a2.864 2.864 0 1 1 4.512-3.53 2.863 2.863 0 0 1-.49 4.02 2.863 2.863 0 0 1-4.022-.49Zm7.879-.512a2.663 2.663 0 1 1 4.195-3.283 2.663 2.663 0 0 1-4.195 3.283Zm8.234-1.177a1.976 1.976 0 0 1 .341-2.773 1.974 1.974 0 1 1 2.434 3.11 1.978 1.978 0 0 1-2.775-.337Zm7.944-1.346a1.574 1.574 0 0 1 2.48-1.94 1.579 1.579 0 0 1-.27 2.214 1.575 1.575 0 0 1-2.21-.274Zm7.587-1.472a1.575 1.575 0 1 1 2.482-1.94 1.575 1.575 0 0 1-2.482 1.94Zm7.853-2.1a1.118 1.118 0 0 1 1.759-1.376 1.116 1.116 0 1 1-1.759 1.376Zm7.446-2.206a1.09 1.09 0 0 1 .186-1.528 1.09 1.09 0 0 1 1.342 1.715 1.089 1.089 0 0 1-1.528-.187Zm7.357-2.572a1.001 1.001 0 1 1 1.576-1.235 1.001 1.001 0 0 1-1.576 1.235Zm7.123-2.83a1.088 1.088 0 1 1 1.715-1.341 1.088 1.088 0 0 1-1.715 1.341Zm7.085-3.246a1.002 1.002 0 1 1 1.575-1.238 1.002 1.002 0 0 1-1.575 1.238Zm6.886-3.545a1 1 0 0 1 .172-1.407 1.001 1.001 0 1 1 1.235 1.577 1.002 1.002 0 0 1-1.407-.17Zm6.737-3.889a.916.916 0 1 1 1.444-1.128.916.916 0 0 1-1.444 1.128Zm6.506-4.162a.917.917 0 1 1 1.443-1.13.917.917 0 0 1-1.443 1.13Zm6.553-4.665a.601.601 0 1 1 .947-.741.601.601 0 0 1-.947.741Zm6.161-4.82a.517.517 0 1 1 .813-.637.517.517 0 0 1-.813.637Zm6.047-5.193a.258.258 0 1 1 .406-.317.258.258 0 0 1-.406.317Zm5.755-5.428.015-.116.117.013-.013.119-.119-.016ZM68.48 150.951l.035-.283.28.037-.033.279-.282-.033Zm-1.742 15.535a.46.46 0 0 1 .723-.566c.156.2.121.487-.08.644a.457.457 0 0 1-.643-.078Zm-.476 7.9a.745.745 0 1 1 1.175-.918.745.745 0 0 1-1.175.918Zm.451 7.45a.285.285 0 0 1 .05-.4.286.286 0 1 1-.05.4Zm-.201 8.218a1.146 1.146 0 1 1 1.806-1.413 1.146 1.146 0 0 1-1.806 1.413Zm.424 7.971a1.603 1.603 0 1 1 2.526-1.974 1.603 1.603 0 0 1-2.526 1.974Zm1.213 7.582a1.489 1.489 0 1 1 2.346-1.833 1.489 1.489 0 0 1-2.346 1.833Zm1.07 7.903a2.033 2.033 0 1 1 3.202-2.507 2.033 2.033 0 0 1-3.202 2.507Zm2 7.363a1.801 1.801 0 0 1 .308-2.532 1.801 1.801 0 0 1 2.532.31 1.802 1.802 0 1 1-2.84 2.222Zm1.947 7.578a2.063 2.063 0 1 1 2.896.353 2.064 2.064 0 0 1-2.896-.353Zm2.38 7.396a2.177 2.177 0 0 1 3.427-2.682 2.175 2.175 0 1 1-3.427 2.682Zm2.828 7.178a2.147 2.147 0 1 1 3.381-2.646 2.147 2.147 0 1 1-3.381 2.646Zm3.01 7.155a2.32 2.32 0 0 1 3.655-2.859 2.318 2.318 0 0 1-.398 3.255 2.319 2.319 0 0 1-3.257-.396Zm3.629 6.768a2.092 2.092 0 0 1 3.293-2.577 2.091 2.091 0 0 1-3.293 2.577Zm3.45 6.991a2.463 2.463 0 1 1 3.876-3.04 2.463 2.463 0 0 1-3.876 3.04Zm4.031 6.587a2.463 2.463 0 0 1 3.879-3.035 2.463 2.463 0 0 1-3.88 3.035Zm4.238 6.471a2.607 2.607 0 1 1 4.105-3.21 2.607 2.607 0 0 1-4.105 3.21Zm4.63 6.18a2.606 2.606 0 1 1 4.106-3.21 2.606 2.606 0 0 1-4.106 3.21Zm5.102 5.814a2.346 2.346 0 0 1 .402-3.295 2.35 2.35 0 0 1 3.297.401 2.35 2.35 0 0 1-.404 3.297 2.346 2.346 0 0 1-3.295-.403Zm4.93 5.927a2.638 2.638 0 0 1 .451-3.699 2.634 2.634 0 1 1-.451 3.699Zm5.711 5.276a2.235 2.235 0 0 1 .383-3.135 2.235 2.235 0 0 1 2.753 3.52 2.235 2.235 0 0 1-3.136-.385Zm5.183 5.636a2.835 2.835 0 1 1 4.46-3.499 2.835 2.835 0 0 1-4.46 3.499Zm5.596 5.227a3.208 3.208 0 1 1 5.052-3.953 3.208 3.208 0 0 1-5.052 3.953Zm6.264 4.611a3.006 3.006 0 1 1 4.736-3.705 3.006 3.006 0 0 1-4.736 3.705Zm6.288 4.472a3.036 3.036 0 1 1 4.781-3.74 3.036 3.036 0 0 1-4.781 3.74Zm6.861 3.888a2.579 2.579 0 1 1 4.063-3.178 2.579 2.579 0 0 1-4.063 3.178Zm6.355 4.129a2.978 2.978 0 1 1 4.692-3.669 2.978 2.978 0 0 1-4.692 3.669Zm6.969 3.478a2.834 2.834 0 0 1 .487-3.979 2.834 2.834 0 1 1 3.493 4.465 2.834 2.834 0 0 1-3.98-.486Zm7.256 3.061a2.49 2.49 0 1 1 3.924-3.07 2.493 2.493 0 0 1-.426 3.498 2.493 2.493 0 0 1-3.498-.428Zm7.15 2.937a2.495 2.495 0 0 1 .426-3.501 2.494 2.494 0 0 1 3.073 3.927 2.493 2.493 0 0 1-3.499-.426Zm7.107 2.742a2.693 2.693 0 0 1 4.241-3.318 2.691 2.691 0 0 1-4.241 3.318Zm7.296 2.353a2.777 2.777 0 0 1 .477-3.899 2.776 2.776 0 0 1 3.9.475 2.78 2.78 0 0 1-4.377 3.424Zm7.441 1.983a2.833 2.833 0 1 1 4.464-3.493 2.834 2.834 0 1 1-4.464 3.493Zm7.551 1.619a2.836 2.836 0 1 1 4.47-3.494 2.836 2.836 0 0 1-4.47 3.494Zm7.564 1.321a2.921 2.921 0 1 1 4.601-3.6 2.921 2.921 0 0 1-4.601 3.6Zm7.73.885a2.809 2.809 0 0 1 .482-3.94 2.807 2.807 0 1 1-.482 3.94Zm7.713.582a2.805 2.805 0 0 1 .482-3.937 2.806 2.806 0 1 1 3.459 4.421 2.81 2.81 0 0 1-3.941-.484Zm7.757.218a2.778 2.778 0 1 1 4.377-3.423 2.778 2.778 0 0 1-4.377 3.423Zm7.632-.029a2.863 2.863 0 1 1 4.511-3.529 2.863 2.863 0 1 1-4.511 3.529Zm8.362-.959a2.033 2.033 0 1 1 3.204-2.504 2.033 2.033 0 0 1-3.204 2.504Zm7.699-.807a2.035 2.035 0 0 1 3.204-2.507 2.035 2.035 0 0 1-3.204 2.507Zm7.816-1.273a1.804 1.804 0 1 1 2.841-2.225 1.804 1.804 0 0 1-2.841 2.225Zm7.68-1.557a1.66 1.66 0 0 1 .286-2.331 1.66 1.66 0 1 1 2.046 2.616 1.663 1.663 0 0 1-2.332-.285Zm7.747-2.006a1.376 1.376 0 1 1 2.166-1.693 1.376 1.376 0 0 1-2.166 1.693Zm7.358-2.105a1.432 1.432 0 1 1 2.256-1.765 1.432 1.432 0 0 1-2.256 1.765Zm7.343-2.504a1.433 1.433 0 0 1 2.256-1.765 1.43 1.43 0 0 1-.247 2.009 1.43 1.43 0 0 1-2.009-.244Zm8.015-3.451a.371.371 0 0 1 .066-.523.372.372 0 1 1 .459.587.373.373 0 0 1-.525-.064Zm6.962-3.051a.517.517 0 0 1 .813-.636.515.515 0 0 1-.813.636Zm7.029-3.532a.344.344 0 1 1 .54-.425.344.344 0 0 1-.54.425Zm6.842-3.819a.257.257 0 0 1 .405-.317.256.256 0 0 1-.045.361.255.255 0 0 1-.36-.044Zm6.629-4.088.029-.241.241.03-.029.241-.241-.03Zm6.452-4.387.015-.115.116.012-.013.119-.118-.016ZM58.11 181.748a.286.286 0 1 1 .45-.352.287.287 0 0 1-.05.403.285.285 0 0 1-.4-.051Zm.243 7.853a.517.517 0 1 1 .814-.636.517.517 0 0 1-.814.636Zm.752 7.688a.515.515 0 1 1 .812-.634.515.515 0 0 1-.812.634Zm1.137 7.603a.458.458 0 1 1 .72-.563.458.458 0 0 1-.72.563Zm.709 8.141a1.318 1.318 0 1 1 2.072-1.624 1.318 1.318 0 0 1-2.072 1.624Zm2.443 6.97a.43.43 0 1 1 .677-.532.43.43 0 0 1-.677.532Zm1.332 8.008a1.346 1.346 0 1 1 2.119-1.658 1.346 1.346 0 0 1-2.12 1.658Zm2.372 7.348a1.347 1.347 0 1 1 2.122-1.662 1.347 1.347 0 0 1-2.122 1.662Zm3.592 6.529.03-.241.242.029-.03.242-.241-.03Zm2.561 7.454a.715.715 0 1 1 1.127-.88.715.715 0 0 1-1.127.88Zm2.719 7.435a1.432 1.432 0 1 1 2.255-1.766 1.432 1.432 0 0 1-2.255 1.766Zm3.1 7.221a2.033 2.033 0 0 1 .35-2.853 2.033 2.033 0 0 1 2.853.346 2.033 2.033 0 0 1-3.203 2.507Zm3.459 7.007a2.55 2.55 0 1 1 4.016-3.142 2.55 2.55 0 0 1-4.016 3.142Zm4.108 6.546a2.608 2.608 0 0 1 .446-3.659 2.608 2.608 0 0 1 3.658.448 2.604 2.604 0 0 1-.447 3.657 2.604 2.604 0 0 1-3.657-.446Zm4.579 6.211a2.435 2.435 0 0 1 3.834-3 2.433 2.433 0 0 1-.418 3.415 2.432 2.432 0 0 1-3.416-.415Zm4.694 6.132a2.434 2.434 0 1 1 3.837-2.998 2.434 2.434 0 0 1-3.837 2.998Zm4.777 6.065a2.661 2.661 0 0 1 .459-3.737 2.66 2.66 0 0 1 3.736.455 2.664 2.664 0 1 1-4.195 3.282Zm5.047 5.833a2.835 2.835 0 1 1 4.466-3.494 2.836 2.836 0 0 1-4.466 3.494Zm5.54 5.404a2.723 2.723 0 0 1 .466-3.82 2.723 2.723 0 0 1 3.354 4.287 2.723 2.723 0 0 1-3.82-.467Zm5.723 5.204a2.635 2.635 0 1 1 4.15-3.246 2.635 2.635 0 0 1-4.15 3.246Zm5.667 5.171a2.92 2.92 0 0 1 .501-4.1 2.923 2.923 0 1 1-.501 4.1Zm6.122 4.724a2.894 2.894 0 0 1 .495-4.061 2.895 2.895 0 0 1 4.062.497 2.89 2.89 0 0 1-.498 4.058 2.89 2.89 0 0 1-4.059-.494Zm6.45 4.353a2.72 2.72 0 0 1 .466-3.819 2.722 2.722 0 1 1-.466 3.819Zm6.468 4.215a2.72 2.72 0 1 1 4.287-3.35 2.72 2.72 0 0 1-4.287 3.35Zm6.478 4.061a2.949 2.949 0 0 1 4.646-3.635 2.95 2.95 0 1 1-4.646 3.635Zm6.94 3.54a2.776 2.776 0 1 1 3.897.476 2.776 2.776 0 0 1-3.897-.476Zm6.889 3.401a2.862 2.862 0 0 1 .491-4.019 2.862 2.862 0 1 1 3.528 4.51 2.864 2.864 0 0 1-4.019-.491Zm7.074 3.059a2.89 2.89 0 0 1 .496-4.058 2.891 2.891 0 1 1-.496 4.058Zm7.169 2.778a2.978 2.978 0 1 1 4.69-3.672 2.978 2.978 0 0 1-4.69 3.672Zm7.321 2.434a2.979 2.979 0 1 1 4.692-3.669 2.979 2.979 0 0 1-4.692 3.669Zm7.414 2.121a3.007 3.007 0 1 1 4.737-3.706 3.01 3.01 0 0 1-.515 4.223 3.01 3.01 0 0 1-4.222-.517Zm7.854 1.523a2.58 2.58 0 0 1 .44-3.62 2.58 2.58 0 0 1 3.62.444 2.577 2.577 0 0 1-4.06 3.176Zm7.43 1.588a2.778 2.778 0 1 1 4.373-3.426 2.778 2.778 0 0 1-4.373 3.426Zm7.539 1.219a2.922 2.922 0 1 1 4.602-3.6 2.922 2.922 0 0 1-4.602 3.6Zm8.2.406a2.234 2.234 0 1 1 3.519-2.752 2.234 2.234 0 0 1-3.519 2.752Zm7.282.817a2.777 2.777 0 0 1 .477-3.899 2.778 2.778 0 1 1-.477 3.899Zm8.131-.163a2.263 2.263 0 1 1 3.566-2.788 2.263 2.263 0 0 1-3.566 2.788Zm7.729-.184a2.262 2.262 0 1 1 3.568-2.784 2.262 2.262 0 0 1-3.568 2.784Zm8.608-1.211a1.116 1.116 0 0 1 1.759-1.376 1.117 1.117 0 1 1-1.759 1.376Zm7.206-.463a1.718 1.718 0 1 1 2.707-2.117 1.718 1.718 0 0 1-2.707 2.117Zm8.576-1.897a.519.519 0 0 1 .088-.726.518.518 0 0 1 .724.091.515.515 0 0 1-.812.635Zm7.118-1.126a1.088 1.088 0 1 1 1.719-1.341 1.088 1.088 0 0 1-1.719 1.341Zm8.398-2.488.002-.02.021.001-.002.023-.021-.004Zm7.348-2.08.013-.117.119.014-.016.117-.116-.014Zm7.257-2.395.03-.241.241.03-.029.241-.242-.03Zm7.048-2.624a.373.373 0 1 1 .589-.459.373.373 0 0 1-.589.459ZM54.864 219.712l.003-.02.021.001-.003.022-.021-.003Zm4.213 14.86.003-.022.022.003-.003.021-.022-.002Zm2.415 7.385.03-.242.242.03-.03.242-.242-.03Zm13.198 27.884.011-.117.12.014-.016.117-.115-.014Zm3.996 6.606.012-.118.118.017-.014.115-.116-.014Zm4.071 6.586a.287.287 0 0 1 .05-.403.286.286 0 1 1-.05.403Zm4.03 6.643a.887.887 0 1 1 1.398-1.091.887.887 0 0 1-1.398 1.091Zm4.76 6.084a.887.887 0 1 1 1.398-1.093.887.887 0 0 1-1.398 1.093Zm5.152 5.769a.716.716 0 0 1 1.128-.883.717.717 0 0 1-1.128.883Zm5.251 5.665a.715.715 0 0 1 1.128-.882.719.719 0 0 1-.121 1.007.718.718 0 0 1-1.007-.125Zm5.381 5.523a.801.801 0 1 1 1.264-.986.801.801 0 0 1-1.264.986Zm5.511 5.368a1.03 1.03 0 1 1 1.622-1.27 1.03 1.03 0 1 1-1.622 1.27Zm5.608 5.216a1.374 1.374 0 1 1 2.165-1.694 1.375 1.375 0 1 1-2.165 1.694Zm6.48 4.444a.917.917 0 1 1 1.443-1.131.917.917 0 0 1-1.443 1.131Zm4.65 5.772a2.979 2.979 0 1 1 4.692-3.67 2.979 2.979 0 0 1-4.692 3.67Zm7.03 3.791a2.264 2.264 0 0 1 3.564-2.789 2.262 2.262 0 0 1-.39 3.175 2.262 2.262 0 0 1-3.174-.386Zm7.529 3.262a1.088 1.088 0 1 1 1.712-1.342 1.088 1.088 0 0 1-1.712 1.342Zm5.22 4.919a3.064 3.064 0 1 1 4.826-3.778 3.064 3.064 0 0 1-4.826 3.778Zm7.364 3.073a2.518 2.518 0 0 1 .432-3.537 2.519 2.519 0 1 1 3.105 3.969 2.52 2.52 0 0 1-3.537-.432Zm8.383 2.095a.828.828 0 0 1 .144-1.163.828.828 0 1 1 1.022 1.306.83.83 0 0 1-1.166-.143Zm6.611 3.289a1.576 1.576 0 1 1 2.483-1.942 1.576 1.576 0 0 1-2.483 1.942Zm8.243 1.798a.373.373 0 1 1 .59-.456.373.373 0 0 1-.59.456Zm5.597 3.649a2.635 2.635 0 1 1 4.153-3.245 2.635 2.635 0 0 1-4.153 3.245Zm8.363 1.248c-.516-.66-.4-1.611.262-2.129a1.517 1.517 0 1 1-.262 2.129Zm7.357 1.786a1.747 1.747 0 1 1 2.752-2.153 1.747 1.747 0 0 1-2.752 2.153Zm7.007 1.799a2.518 2.518 0 0 1 .433-3.536 2.519 2.519 0 1 1 3.105 3.968 2.52 2.52 0 0 1-3.538-.432Zm9.121-.133a.66.66 0 1 1 1.041-.81.66.66 0 0 1-1.041.81Zm8.074.402.035-.28.281.033-.034.283-.282-.036Zm7.088.88a1 1 0 0 1 .171-1.406 1.001 1.001 0 1 1-.171 1.406Zm8.493-.513.002-.022.022.003-.003.021-.021-.002Zm7.529-.109a.257.257 0 1 1 .405-.317.257.257 0 0 1-.405.317Zm7.844-.666.014-.12.117.017-.012.117-.119-.014Zm7.657-.861.017-.118.115.015-.012.117-.12-.014Zm22.803-4.528.003-.021.021.002-.003.022-.021-.003Zm-160.627-20.146a.259.259 0 1 1 .407-.318.259.259 0 0 1-.046.362.257.257 0 0 1-.361-.044Zm6.598 4.143.014-.118.118.015-.015.117-.117-.014Zm6.66 3.979.003-.021.021.002-.003.022-.021-.003Zm6.589 3.863.035-.283.282.036-.036.28-.281-.033Zm6.876 3.495.034-.282.282.036-.034.281-.282-.035Zm7.19 3.099.003-.022.02.004-.002.02-.021-.002Zm7.02 3.016.03-.241.241.029-.028.244-.243-.032Zm7.323 2.606.012-.118.12.014-.017.118-.115-.014Zm7.367 2.354.015-.115.115.014-.012.118-.118-.017Zm7.416 2.099.014-.115.117.012-.015.118-.116-.015Zm7.448 1.837.031-.239.24.028-.03.241-.241-.03Zm7.726 1.396.003-.021.021.002-.002.022-.022-.003Zm7.633 1.197.001-.021.023.002-.004.021-.02-.002Zm7.661.907.003-.023.021.004-.002.02-.022-.001Zm7.717.585.003-.02.02.001-.003.022-.02-.003Zm15.424.309.002-.02.021.002-.003.022-.02-.004Zm-95.274-12.665.002-.023.022.004-.003.02-.021-.001Zm6.977 3.297.001-.021.022.003-.003.021-.02-.003Zm7.113 3.019.003-.023.022.003-.003.021-.022-.001Zm7.216 2.752.004-.021.02.003-.001.021-.023-.003Zm7.31 2.484.003-.02.021.002-.004.02-.02-.002Zm7.401 2.209.003-.02.021.001-.003.021-.021-.002Zm7.487 1.924.004-.021.02.003-.002.02-.022-.002Zm30.464 4.899.002-.022.022.003-.003.021-.021-.002Zm7.706.507.002-.022.022.003-.003.022-.021-.003Zm7.728.208.003-.02.021.001-.003.022-.021-.003Zm-87.996-11.075.002-.021.022.003-.004.02-.02-.002Zm43.766 14.762.019-.154.154.018-.018.156-.155-.02Zm30.648 4.369.002-.021.022.002-.004.022-.02-.003Zm7.728.404.003-.021.021.002-.002.022-.022-.003Zm-51.503.745.003-.02.021.002-.002.022-.022-.004Zm7.481 1.919.003-.02.021.001-.002.023-.022-.004Zm61.3 5.895.003-.022.021.003-.002.021-.022-.002Zm7.714-.463.003-.022.021.003-.003.021-.021-.002Z"/>
</svg>
