<svg xmlns="http://www.w3.org/2000/svg" width="124" height="21" fill="none" viewBox="0 0 124 21">
  <path fill="#FE7831" d="M9.382 2.927c.3-.921 1.603-.921 1.902 0l1.145 3.522a1 1 0 0 0 .95.691h3.704c.969 0 1.372 1.24.588 1.81l-2.996 2.176a1 1 0 0 0-.363 1.118l1.144 3.522c.3.921-.755 1.688-1.539 1.118l-2.996-2.177a1 1 0 0 0-1.175 0l-2.997 2.177c-.783.57-1.838-.197-1.538-1.118l1.144-3.522a1 1 0 0 0-.363-1.118L2.996 8.949c-.784-.57-.381-1.809.587-1.809h3.704a1 1 0 0 0 .95-.69l1.145-3.523Zm25.833 0c.3-.921 1.603-.921 1.903 0l1.144 3.522a1 1 0 0 0 .951.691h3.703c.97 0 1.372 1.24.588 1.81l-2.996 2.176a1 1 0 0 0-.363 1.118l1.144 3.522c.3.921-.755 1.688-1.538 1.118l-2.997-2.177a1 1 0 0 0-1.175 0l-2.996 2.177c-.784.57-1.838-.197-1.54-1.118l1.145-3.522a1 1 0 0 0-.363-1.118l-2.996-2.177c-.784-.57-.381-1.809.588-1.809h3.703a1 1 0 0 0 .951-.69l1.145-3.523Zm25.834 0c.3-.921 1.603-.921 1.902 0l1.145 3.522a1 1 0 0 0 .95.691h3.704c.969 0 1.371 1.24.588 1.81l-2.996 2.176a1 1 0 0 0-.364 1.118l1.145 3.522c.3.921-.755 1.688-1.539 1.118l-2.996-2.177a1 1 0 0 0-1.176 0l-2.996 2.177c-.783.57-1.838-.197-1.539-1.118l1.145-3.522a1 1 0 0 0-.364-1.118l-2.996-2.177c-.783-.57-.38-1.809.588-1.809h3.704a1 1 0 0 0 .95-.69l1.145-3.523Zm25.833 0c.3-.921 1.603-.921 1.902 0l1.145 3.522a1 1 0 0 0 .95.691h3.704c.969 0 1.372 1.24.588 1.81l-2.996 2.176a1 1 0 0 0-.363 1.118l1.144 3.522c.3.921-.755 1.688-1.539 1.118l-2.996-2.177a1 1 0 0 0-1.175 0l-2.996 2.177c-.784.57-1.839-.197-1.54-1.118l1.145-3.522a1 1 0 0 0-.363-1.118l-2.996-2.177c-.784-.57-.381-1.809.587-1.809h3.704a1 1 0 0 0 .95-.69l1.145-3.523Z"/>
  <path fill="#A4A4A3" d="M112.716 2.927c.299-.921 1.602-.921 1.902 0l1.144 3.522a1 1 0 0 0 .951.691h3.703c.969 0 1.372 1.24.588 1.81l-2.996 2.176a1 1 0 0 0-.363 1.118l1.144 3.522c.3.921-.755 1.688-1.539 1.118l-2.996-2.177a.999.999 0 0 0-1.175 0l-2.996 2.177c-.784.57-1.838-.197-1.539-1.118l1.144-3.522a1 1 0 0 0-.363-1.118l-2.996-2.177c-.784-.57-.381-1.809.588-1.809h3.703a1 1 0 0 0 .951-.69l1.145-3.523Z"/>
</svg>
