<svg xmlns="http://www.w3.org/2000/svg" xmlns:xlink="http://www.w3.org/1999/xlink" width="729" height="846" fill="none" viewBox="0 0 729 846">
  <g filter="url(#a)" opacity=".7" style="mix-blend-mode:hard-light">
    <circle cx="456.5" cy="430.5" r="191.5" fill="#315BFF"/>
  </g>
  <g filter="url(#b)" opacity=".5">
    <ellipse cx="347" cy="541.5" fill="#FF3C78" rx="87" ry="86.5"/>
  </g>
  <g filter="url(#c)" opacity=".5">
    <ellipse cx="494" cy="440.5" fill="#FE7831" rx="93" ry="93.5"/>
  </g>
  <path fill="#0A083A" d="M639.93 340.166c-2.622-18.944-20.106-32.176-39.051-29.554a34.825 34.825 0 0 0-5.686 1.287c-5.93 1.06-72.483 23.079-101.634-12.5-14.343-16.775-36.653-26.13-60.138-22.88-20.658 2.859-37.803 14.855-47.924 31.342l-22.421 32.093a92.347 92.347 0 0 1-43.157 34.662l-51.641 20.166a97.574 97.574 0 0 0-10.082 3.936l-.124.049.002.007c-38.455 17.575-62.544 58.818-56.449 102.849 7.442 53.758 57.053 91.305 110.811 83.864a98.954 98.954 0 0 0 15.519-3.438l52.736-11.684a92.355 92.355 0 0 1 81.225 21.053c5.94 5.264 13.05 12.974 14.025 14.494.007.011.047.008.068.013 17.758 22.097 46.337 34.585 76.46 30.415 45.605-6.312 77.457-48.4 71.144-94.005-.086-.622-16.126-91.508-16.126-91.508l-.066-.397c-3.618-21.728.833-44.033 12.321-62.825l14.741-23.558c4.505-6.788 6.651-15.177 5.447-23.881Z" opacity=".19"/>
  <path fill="url(#d)" d="M167 215h.203v.203H167z"/>
  <path fill="url(#e)" d="M227.793 517.174c-1.658 17.602 11.267 33.215 28.868 34.872 1.822.172 3.621.179 5.388.049 5.561.302 70.109-5.396 88.792 32.796 9.348 18.134 27.437 31.282 49.256 33.338 19.193 1.808 37.161-5.351 49.763-18.037l26.979-24.121a85.354 85.354 0 0 1 46.179-22.035l50.737-7.194a90.082 90.082 0 0 0 9.907-1.403l.122-.017-.001-.007c38.325-7.659 68.745-39.658 72.598-80.566 4.702-49.946-31.973-94.247-81.918-98.95a91.212 91.212 0 0 0-14.69-.197l-49.926-.672a85.372 85.372 0 0 1-68.616-36.165c-4.228-5.995-8.99-14.44-9.545-16.013-.004-.012-.041-.018-.058-.027-11.292-23.646-34.357-40.942-62.344-43.578-42.37-3.99-79.952 27.123-83.942 69.492-.054.578-4.896 85.752-4.896 85.752-.007.124-.015.247-.024.371-1.351 20.316-10.086 39.44-24.407 53.913l-18.258 18.07c-5.491 5.151-9.203 12.245-9.964 20.329Z"/>
  <path fill="url(#f)" d="M166.912 214.574h.203v.203h-.203z"/>
  <path fill="url(#g)" fill-opacity=".6" d="M250.013 566.829c2.551 17.494 18.8 29.608 36.294 27.057a32.07 32.07 0 0 0 5.247-1.226c5.475-1.019 66.846-21.814 94.029 10.877 13.369 15.41 34.053 23.91 55.739 20.749 19.077-2.781 34.843-13.983 44.09-29.289l20.512-29.814a85.347 85.347 0 0 1 39.661-32.328l47.599-18.984a89.694 89.694 0 0 0 9.293-3.706l.115-.045-.002-.006c35.428-16.502 57.421-54.786 51.494-95.445-7.237-49.642-53.346-84.017-102.987-76.78a91.506 91.506 0 0 0-14.321 3.28l-48.668 11.151a85.376 85.376 0 0 1-75.221-18.919c-5.525-4.826-12.149-11.906-13.06-13.304-.008-.011-.044-.007-.062-.012-16.562-20.307-43.063-31.661-70.879-27.605-42.113 6.139-71.275 45.254-65.135 87.366.083.575 15.515 84.479 15.515 84.479l.063.366c3.49 20.058-.476 40.706-10.97 58.154l-13.47 21.875a31.88 31.88 0 0 0-4.876 22.109Z"/>
  <path fill="url(#h)" d="M166.912 214.574h.203v.203h-.203z"/>
  <path fill="#315BFF" d="M626.575 384.628c.097-1.761.966-2.895 2.729-3.144 1.621-.229 3.258 1.221 3.218 2.855-.045 1.778-1.045 2.932-2.815 3.022-1.774.088-2.796-.988-3.132-2.733Zm10.078-69.01c1.79.099 2.969.956 3.12 2.751.147 1.789-.834 2.911-2.601 3.185-1.683.26-3.193-1.071-3.228-2.794-.038-1.839 1.043-2.761 2.709-3.142Zm16.591 12.736c.059 1.872-.846 2.969-2.579 3.29-1.633.302-3.244-1.055-3.282-2.744-.04-1.793.9-2.979 2.677-3.117 1.755-.135 2.85.859 3.184 2.571Zm-68.275 24.893c.009-1.538.805-2.761 2.635-2.96 1.813-.199 3.007.742 3.209 2.559.205 1.82-.784 2.942-2.567 3.241-1.588.266-3.069-.966-3.277-2.84Zm-7.449-10.38c-.105 1.763-.939 2.973-2.777 3.092-1.825.117-2.962-.913-3.095-2.719-.134-1.822.877-2.965 2.7-3.092 1.837-.132 2.836.935 3.172 2.719Zm65.173 48.689c1.749.039 2.973.776 3.207 2.605.234 1.822-.714 2.941-2.446 3.303-1.639.345-3.276-.962-3.368-2.653-.098-1.81.888-2.836 2.607-3.255Zm-32.326-71.464c1.919.142 3.124 1.018 3.2 2.837.076 1.791-.931 2.954-2.771 3.043-1.83.086-2.932-.928-3.041-2.752-.11-1.863 1.044-2.765 2.612-3.128Zm-6.128 66.724c1.732.092 2.968.832 3.144 2.678.173 1.81-.729 2.925-2.531 3.191-1.753.257-3.269-.956-3.308-2.683-.04-1.799.99-2.801 2.695-3.186Zm-55.196-41.348c1.795.087 3.036.843 3.205 2.704.167 1.835-.766 2.961-2.605 3.159-1.881.204-2.977-.851-3.188-2.599-.223-1.835.916-2.824 2.588-3.264Zm103.115 11.793c-1.518-.033-2.65-.865-2.853-2.709-.177-1.604 1.102-3.173 2.66-3.192 1.795-.02 2.934.947 3.2 2.716.235 1.561-1.097 3.021-3.007 3.185Zm-43.376-62.741c1.48 0 2.662.731 2.916 2.574.242 1.764-.936 3.233-2.689 3.3-1.822.069-2.886-.946-3.161-2.67-.246-1.54 1.064-3.009 2.934-3.204Zm57.978 44.049c.139 1.643-1.05 3.078-2.656 3.207-1.57.125-3.096-1.158-3.228-2.713-.13-1.553 1.16-3.071 2.728-3.216 1.596-.146 3.018 1.081 3.156 2.722Zm-105.779-8.572c1.55-.011 2.656.933 2.963 2.671.277 1.563-1.035 3.096-2.669 3.189-1.817.104-2.952-.774-3.173-2.625-.204-1.697.921-3.049 2.879-3.235Zm55.021 47.302c-1.526-.109-2.758-.882-2.899-2.749-.142-1.853.89-3 2.664-3.162 1.82-.167 2.908.953 3.192 2.697.245 1.509-1.166 3.07-2.957 3.214Zm-22.107 2.143c.134 1.603-1.093 3.012-2.737 3.14-1.639.129-3.08-1.078-3.195-2.673-.113-1.572 1.179-3.092 2.731-3.215 1.552-.124 3.07 1.179 3.201 2.748Zm49.587-10.179c.036 2.038-.772 3.218-2.617 3.413-1.84.195-3.014-.762-3.21-2.565-.197-1.809.773-2.986 2.593-3.196 1.85-.215 2.83.852 3.234 2.348Zm-24.101-61.397c-.024-1.764.754-2.968 2.6-3.173 1.857-.207 2.98.785 3.18 2.58.202 1.806-.722 3.028-2.548 3.212-1.794.178-2.91-.764-3.232-2.619Zm-8.709 41.839c.105-1.809 1.01-2.886 2.839-3.029 1.628-.127 3.128 1.182 3.081 2.764-.054 1.77-.988 2.949-2.832 3.03-1.839.08-2.815-.986-3.088-2.765Zm-34.511 15.991c1.781.102 2.931.975 3.015 2.822.083 1.829-.904 2.936-2.743 3.046-1.874.11-2.919-.973-3.036-2.758-.12-1.842.965-2.828 2.764-3.11Zm9.08-40.132c1.786-.051 3.009.74 3.193 2.575.18 1.785-.681 2.958-2.562 3.166-1.867.205-3.012-.714-3.214-2.508-.203-1.794.755-2.903 2.583-3.233Zm-4.429-22.535c.017-1.911.973-3.025 2.778-3.116 1.817-.092 2.937.953 3.032 2.78.095 1.84-.923 2.928-2.755 3.031-1.862.104-2.819-.968-3.055-2.695Zm16.025 6.994c1.801-.108 3.324 1.16 3.307 2.745-.018 1.756-.845 2.995-2.742 3.089-1.847.092-2.92-.88-3.064-2.719-.146-1.891.957-2.806 2.499-3.115Zm-21.783 8.073c-.074 1.771-.799 2.951-2.709 3.104-1.886.152-2.976-.813-3.144-2.596-.169-1.81.818-2.961 2.646-3.121 1.831-.161 2.86.841 3.207 2.613Zm-13.347 66.235c.143-1.793.975-2.953 2.839-3.045 1.864-.094 2.984.971 3.077 2.727.095 1.762-.878 2.912-2.778 3.008-1.894.096-2.801-.966-3.138-2.69Zm59.056 15.863c-.017 1.441-.934 2.527-2.77 2.621-1.866.094-2.859-.965-3.004-2.783-.13-1.65 1.146-3.134 2.746-3.07 1.739.069 2.923.908 3.028 3.232Zm-15.211-35.916c-.045 1.598-.924 2.774-2.755 2.869-1.816.095-2.896-.942-3.065-2.762-.154-1.639 1.128-3.06 2.731-3.147 1.59-.085 2.983 1.193 3.089 3.04Zm-45.537-5.494c-.004-1.977.981-3.079 2.762-3.165 1.783-.083 2.933.911 3 2.779.065 1.832-.877 2.936-2.73 3.036-1.878.1-2.787-.995-3.032-2.65Zm39.08-23.141c1.576-.005 2.728.816 2.851 2.685.122 1.845-.83 2.899-2.678 3.072-1.927.179-2.97-.937-3.11-2.654-.141-1.749.806-2.92 2.937-3.103ZM555.7 308.389c.057-1.873.989-2.953 2.81-3.057 1.861-.105 2.969.996 3.06 2.744.09 1.761-.908 2.909-2.788 3.004-1.893.096-2.801-.968-3.082-2.691Zm68.372 51.503c.119-1.797.985-2.915 2.816-3.091 1.621-.155 3.124 1.126 3.119 2.723-.007 1.784-.922 2.963-2.772 3.073-1.842.107-2.822-.962-3.163-2.705Zm-1.728-25.409c-.143-2.066.905-3.177 2.63-3.308 1.72-.13 2.962.796 3.095 2.696.13 1.863-.82 2.953-2.639 3.111-1.855.163-2.855-.857-3.086-2.499Zm-71.708 36.707c2.139-.214 3.181.794 3.521 2.507.314 1.585-.925 3.012-2.605 3.179-1.852.184-3.016-.672-3.224-2.5-.21-1.823.765-2.892 2.308-3.186Zm100.54 9.11c-.077-2.029.831-3.14 2.651-3.277 1.811-.135 2.928.789 3.082 2.658.154 1.888-.863 2.93-2.641 3.108-1.855.183-2.835-.871-3.092-2.489Zm-15.403-35.768c-.023-2.013.986-3.156 2.73-3.266 1.746-.11 2.975.896 3.067 2.749.09 1.806-.872 2.955-2.711 3.084-1.867.13-2.804-.972-3.086-2.567Zm-43.251 57.824c1.958.061 3.064.943 3.16 2.792.097 1.855-.906 2.937-2.725 3.027-1.818.091-2.881-.878-3.006-2.744-.128-1.925 1.008-2.751 2.571-3.075Zm72.792-35.003c-1.362-.07-2.469-.948-2.637-2.778-.148-1.595 1.184-3.147 2.759-3.098 1.472.046 2.918.546 2.777 2.37-.119 1.534-.091 3.435-2.899 3.506Zm-88.943 27.953c.064-1.812.931-2.94 2.782-3.017 1.829-.076 2.873.886 2.986 2.747.113 1.912-.94 2.89-2.721 3.007-1.853.124-2.814-.946-3.047-2.737Zm-25.931-72.382c-.048 1.604-.967 2.902-2.75 2.791-.985-.062-2.264-.948-2.759-1.829-.553-.985 1.703-3.976 2.686-3.981 1.465-.008 2.724 1.251 2.823 3.019Z"/>
  <path fill="#FF3C78" d="M315.839 617.289a2.37 2.37 0 1 1 2.031 4.284 2.37 2.37 0 0 1-2.031-4.284Zm-6.676-14.114a2.372 2.372 0 1 1 2.035 4.285 2.372 2.372 0 0 1-2.035-4.285Zm-6.808-14.118a2.37 2.37 0 1 1 2.035 4.283 2.37 2.37 0 0 1-2.035-4.283Zm-6.675-14.117a2.372 2.372 0 1 1 2.035 4.286 2.372 2.372 0 0 1-2.035-4.286Zm-6.672-14.086a2.37 2.37 0 1 1 2.033 4.285 2.37 2.37 0 0 1-2.033-4.285Zm39.111 50.597a2.37 2.37 0 1 1 2.033 4.283 2.369 2.369 0 0 1-3.157-1.125 2.37 2.37 0 0 1 1.124-3.158Zm-6.674-14.084a2.37 2.37 0 1 1 2.035 4.283 2.37 2.37 0 0 1-2.035-4.283Zm-6.808-14.117a2.37 2.37 0 1 1 2.033 4.282 2.37 2.37 0 0 1-2.033-4.282Zm-6.675-14.117a2.37 2.37 0 1 1 2.034 4.283 2.37 2.37 0 0 1-2.034-4.283Zm-6.674-14.116a2.37 2.37 0 1 1 2.035 4.282 2.37 2.37 0 0 1-2.035-4.282Zm39.112 50.627a2.37 2.37 0 1 1 2.036 4.281 2.37 2.37 0 0 1-2.036-4.281Zm-6.674-14.118a2.37 2.37 0 1 1-1.124 3.159 2.37 2.37 0 0 1 1.124-3.159Zm-6.809-14.117a2.37 2.37 0 1 1 2.036 4.281 2.37 2.37 0 0 1-2.036-4.281Zm-6.674-14.115a2.371 2.371 0 1 1 2.033 4.284 2.371 2.371 0 0 1-2.033-4.284Zm-6.674-14.117a2.372 2.372 0 1 1 2.031 4.286 2.372 2.372 0 0 1-2.031-4.286Zm39.112 50.626a2.371 2.371 0 1 1 2.034 4.284 2.371 2.371 0 0 1-2.034-4.284Zm-6.675-14.115a2.37 2.37 0 1 1 2.035 4.283 2.37 2.37 0 0 1-2.035-4.283Zm-6.808-14.119a2.37 2.37 0 1 1 2.035 4.282 2.37 2.37 0 0 1-2.035-4.282Zm-6.673-14.115a2.37 2.37 0 1 1 2.032 4.283 2.37 2.37 0 0 1-2.032-4.283Zm-6.675-14.085a2.371 2.371 0 1 1 2.033 4.285 2.371 2.371 0 0 1-2.033-4.285Zm39.112 50.595a2.37 2.37 0 1 1 2.036 4.282 2.37 2.37 0 0 1-2.036-4.282Zm-6.674-14.085a2.373 2.373 0 1 1-1.126 3.16 2.373 2.373 0 0 1 1.126-3.16Zm-6.807-14.117a2.37 2.37 0 1 1 2.032 4.283 2.37 2.37 0 0 1-2.032-4.283Zm-6.677-14.116a2.372 2.372 0 1 1 2.035 4.285 2.372 2.372 0 0 1-2.035-4.285Zm-6.674-14.116a2.37 2.37 0 1 1 2.035 4.283 2.37 2.37 0 0 1-2.035-4.283Z" opacity=".9"/>
  <path fill="url(#i)" d="M166.912 214.574h.203v.203h-.203z"/>
  <path fill="url(#j)" d="M489.882 518.201c2.418 5.701-.243 12.282-5.943 14.699-5.701 2.418-12.282-.243-14.7-5.943-2.418-5.7.243-12.281 5.944-14.7 5.7-2.418 12.281.243 14.699 5.944Z"/>
  <path fill="url(#k)" d="M166.912 214.574h.203v.203h-.203z"/>
  <path fill="#fff" d="m291.826 353.642-42.441-17.144a3.097 3.097 0 0 1-1.933-3.01l.669-14.852c.12-2.653 3.301-3.937 5.222-2.103 4.563 4.353 11.665 11.137 18.533 17.719 10.421 9.987 20.301 19.512 19.95 19.39Zm7.127-1.457-15.058-43.226a3.094 3.094 0 0 1 .991-3.436l11.614-9.28c2.075-1.657 5.137-.128 5.023 2.525-.678 15.847-2.338 53.987-2.57 53.417Zm-3.515 16.252-23.657 5.676a3.094 3.094 0 0 1-3.321-1.328l-2.283-3.527c-1.443-2.229.4-5.121 3.029-4.743 9.722 1.399 26.525 3.836 26.232 3.922Z" opacity=".96"/>
  <circle cx="553.301" cy="606.07" r="10.835" fill="url(#l)" fill-opacity=".7"/>
  <circle cx="424.835" cy="233.825" r="10.835" fill="#fff"/>
  <circle cx="598.187" cy="213.704" r="14.704" fill="#fff"/>
  <path fill="url(#m)" d="M0 463.316h768.013V969.76H0z" transform="rotate(-40.946 0 463.316)"/>
  <defs>
    <pattern id="d" width="1" height="1" patternContentUnits="objectBoundingBox">
      <use xlink:href="#n" transform="scale(.00051 .00062)"/>
    </pattern>
    <pattern id="f" width="1" height="1" patternContentUnits="objectBoundingBox">
      <use xlink:href="#o" transform="scale(.00054 .00064)"/>
    </pattern>
    <pattern id="h" width="1" height="1" patternContentUnits="objectBoundingBox">
      <use xlink:href="#p" transform="scale(.00312 .00246)"/>
    </pattern>
    <pattern id="i" width="1" height="1" patternContentUnits="objectBoundingBox">
      <use xlink:href="#q" transform="scale(.00338 .00337)"/>
    </pattern>
    <pattern id="k" width="1" height="1" patternContentUnits="objectBoundingBox">
      <use xlink:href="#r" transform="scale(.00272 .00215)"/>
    </pattern>
    <pattern id="m" width="1" height="1" patternContentUnits="objectBoundingBox">
      <use xlink:href="#s" transform="scale(.00104 .00157)"/>
    </pattern>
    <linearGradient id="e" x1="214.239" x2="900.255" y1="339.069" y2="449.816" gradientUnits="userSpaceOnUse">
      <stop stop-color="#8AA8F8"/>
      <stop offset="1" stop-color="#315BFF"/>
    </linearGradient>
    <linearGradient id="g" x1="655.046" x2="249.675" y1="458.303" y2="458.303" gradientUnits="userSpaceOnUse">
      <stop stop-color="#02BE83"/>
      <stop offset="1" stop-color="#B3F6DC"/>
    </linearGradient>
    <linearGradient id="j" x1="490.391" x2="471.895" y1="530.925" y2="499.498" gradientUnits="userSpaceOnUse">
      <stop stop-color="#8AA8F8"/>
      <stop offset="1" stop-color="#315BFF"/>
    </linearGradient>
    <linearGradient id="l" x1="564.135" x2="542.466" y1="606.07" y2="606.07" gradientUnits="userSpaceOnUse">
      <stop stop-color="#FE7831"/>
      <stop offset="1" stop-color="#FFDEBE"/>
    </linearGradient>
    <filter id="a" width="596.425" height="596.425" x="158.288" y="132.288" color-interpolation-filters="sRGB" filterUnits="userSpaceOnUse">
      <feFlood flood-opacity="0" result="BackgroundImageFix"/>
      <feBlend in="SourceGraphic" in2="BackgroundImageFix" result="shape"/>
      <feGaussianBlur result="effect1_foregroundBlur_1604_17231" stdDeviation="53.356"/>
    </filter>
    <filter id="b" width="351.854" height="350.854" x="171.073" y="366.073" color-interpolation-filters="sRGB" filterUnits="userSpaceOnUse">
      <feFlood flood-opacity="0" result="BackgroundImageFix"/>
      <feBlend in="SourceGraphic" in2="BackgroundImageFix" result="shape"/>
      <feGaussianBlur result="effect1_foregroundBlur_1604_17231" stdDeviation="44.463"/>
    </filter>
    <filter id="c" width="363.854" height="364.854" x="312.073" y="258.073" color-interpolation-filters="sRGB" filterUnits="userSpaceOnUse">
      <feFlood flood-opacity="0" result="BackgroundImageFix"/>
      <feBlend in="SourceGraphic" in2="BackgroundImageFix" result="shape"/>
      <feGaussianBlur result="effect1_foregroundBlur_1604_17231" stdDeviation="44.463"/>
    </filter>
  </defs>
</svg>
